<svg width="64" height="29" viewBox="0 0 64 29" fill="none" xmlns="http://www.w3.org/2000/svg">
<path d="M17.0182 23.2C18.5212 23.2 19.8667 22.765 21.0545 21.895C22.2424 21.025 23.0788 19.8892 23.5636 18.4875L24.6545 15.1525C25.4303 12.8325 25.2364 10.6938 24.0727 8.73625C22.9091 6.77875 21.2364 5.8 19.0545 5.8H8.8L10.1818 17.1825C10.4242 18.8742 11.1879 20.3 12.4727 21.46C13.7576 22.62 15.2727 23.2 17.0182 23.2ZM46.9818 23.2C48.7273 23.2 50.2424 22.62 51.5273 21.46C52.8121 20.3 53.5758 18.8742 53.8182 17.1825L55.2 5.8H45.0182C42.8364 5.8 41.1636 6.79083 40 8.7725C38.8364 10.7542 38.6424 12.905 39.4182 15.225L40.4364 18.4875C40.9212 19.8892 41.7576 21.025 42.9455 21.895C44.1333 22.765 45.4788 23.2 46.9818 23.2ZM17.0182 29C13.8182 29 11.0182 27.9488 8.61818 25.8463C6.21818 23.7438 4.82424 21.0975 4.43636 17.9075L2.90909 5.8H0V0H19.0545C21.1879 0 23.1394 0.519583 24.9091 1.55875C26.6788 2.59792 28.0727 4.01167 29.0909 5.8H34.9818C36 4.01167 37.3939 2.59792 39.1636 1.55875C40.9333 0.519583 42.8848 0 45.0182 0H64V5.8H61.0909L59.5636 17.9075C59.1758 21.0975 57.7818 23.7438 55.3818 25.8463C52.9818 27.9488 50.1818 29 46.9818 29C44.2182 29 41.7333 28.2146 39.5273 26.6438C37.3212 25.0729 35.7818 22.9825 34.9091 20.3725L33.8182 17.11C33.7212 16.7717 33.6242 16.4212 33.5273 16.0588C33.4303 15.6962 33.3333 15.1767 33.2364 14.5H30.7636C30.6667 15.08 30.5697 15.5513 30.4727 15.9138C30.3758 16.2763 30.2788 16.6267 30.1818 16.965L29.0909 20.3C28.2182 22.91 26.6788 25.0125 24.4727 26.6075C22.2667 28.2025 19.7818 29 17.0182 29Z" fill="#1C1B1F"/>
<path d="M17.4545 4.35L7.27273 2.9C6.30303 4.35 5.81818 9.57 5.81818 13.05C5.81818 17.4 7.27273 18.85 10.1818 23.2C13.0909 27.55 18.9091 24.65 21.8182 24.65C24.7273 24.65 26.1818 17.4 27.6364 14.5C29.0909 11.6 26.1818 7.25 24.7273 5.8C23.5636 4.64 19.3939 4.35 17.4545 4.35Z" fill="#1C1B1F"/>
<path d="M48.3963 4.35L58.5781 2.9C59.5478 4.35 60.0327 9.57 60.0327 13.05C60.0327 17.4 58.5781 18.85 55.669 23.2C52.7599 27.55 46.9418 24.65 44.0327 24.65C41.1236 24.65 39.669 17.4 38.2145 14.5C36.7599 11.6 39.669 7.25 41.1236 5.8C42.2872 4.64 46.4569 4.35 48.3963 4.35Z" fill="#1C1B1F"/>
</svg>
