<svg width="272" height="585" viewBox="0 0 272 585" fill="none" xmlns="http://www.w3.org/2000/svg">
<g opacity="0.5" clip-path="url(#clip0_158_257)">
<path d="M165.282 106.977C153.422 94.7796 148.128 89.5814 147.901 89.3648L145.538 87.0506L133.166 99.7498L135.518 102.064C135.518 102.064 140.959 107.41 152.604 119.38C160.817 127.827 166.611 138.36 169.338 149.84C177.267 183.15 157.091 217.064 124.362 225.442C108.048 229.615 91.1442 227.118 76.7733 218.397C62.4138 209.699 52.3485 195.894 48.4406 179.57L45.2029 164.067L45.3619 164.032L44.6008 160.818C42.874 153.579 44.1691 146.146 48.2361 139.899C52.2917 133.652 58.5627 129.469 65.8787 128.124C79.1476 125.684 92.5302 133.937 96.3472 146.91C100.267 160.202 93.6094 174.178 80.8631 179.433C76.8188 181.098 74.6148 185.418 75.6373 189.704C76.2394 192.235 77.9094 194.367 80.2155 195.552C82.5217 196.738 85.2254 196.852 87.6225 195.86C108.469 187.253 119.602 164.317 113.513 142.51C110.559 131.92 103.482 122.754 93.5867 116.735C83.6918 110.705 72.3428 108.63 61.6072 110.876C51.5079 112.996 40.477 119.768 33.3654 128.078C32.4793 125.673 31.5364 123.199 30.5594 120.611L30.5367 120.543C25.6063 107.57 20.0056 92.8758 19.199 80.359C18.9832 76.9961 17.1087 74.055 14.3027 72.6985C12.5305 71.8321 10.5651 71.5927 8.63387 72.0031C4.13517 72.9493 0.181766 77.5091 0 82.0006L0 82.0918L0 82.1374C0.170405 94.1526 6.69125 111.833 14.2345 132.307C19.9942 147.913 26.5151 165.594 31.1842 183.423L31.2183 183.583C36.2282 204.649 49.1676 222.421 67.651 233.627C80.1474 241.197 94.3932 245.198 108.844 245.198C115.092 245.198 121.385 244.457 127.52 242.975C127.94 242.872 128.349 242.77 128.77 242.667C149.059 237.469 166.259 224.439 177.222 205.972C188.128 187.584 191.456 166.187 186.594 145.725C183.118 131.122 175.756 117.727 165.316 106.977H165.282Z" fill="#F7EFDE"/>
<path d="M49.2354 100.574L50.5659 103.333L66.421 96.6726L65.0018 93.5627C54.9676 71.5674 48.3928 51.11 44.9224 31.0371L44.8115 30.5848C44.0908 28.3457 42.5608 26.5363 40.4985 25.4733C38.4362 24.4103 36.0968 24.2293 33.9015 24.9644C29.4665 26.4571 26.9829 31.3425 28.3356 35.8886C33.4025 60.7902 40.2324 81.96 49.2243 100.585L49.2354 100.574Z" fill="#F7EFDE"/>
<path d="M86.4863 91.5193L87.8484 94.5763L104.875 86.9907L103.513 83.9793C91.7154 57.8005 85.0203 33.3783 82.4461 7.14244L82.3538 6.61772C81.742 4.32493 80.2644 2.39717 78.1866 1.21085C76.1088 0.0131294 73.6847 -0.306263 71.3644 0.298303C66.724 1.50743 63.8381 6.21848 64.8886 10.8383C67.1165 37.2795 74.3888 64.4165 86.4747 91.5079L86.4863 91.5193Z" fill="#F7EFDE"/>
<path d="M122.678 84.1004L124.505 87.5707L138.085 77.2396L137 74.8503C126.424 51.6054 124.277 42.4121 122.632 13.3759C122.506 11.089 121.456 8.98406 119.685 7.44806C117.858 5.86654 115.425 5.08147 113.015 5.28627C110.628 5.49107 108.469 6.61747 106.939 8.4493C105.397 10.2925 104.689 12.6136 104.917 15.0029C107.852 44.8583 109.2 58.489 122.689 84.1232L122.678 84.1004Z" fill="#F7EFDE"/>
<path d="M208.894 70.1568C206.233 63.4095 197.888 63.5003 193.118 67.8622C180.025 76.552 171.296 99.7813 171.296 99.7813L182.618 115.593C182.618 115.593 187.547 111.515 191.212 100.667C195.396 83.5378 213.913 81.7544 208.894 70.1568Z" fill="#F7EFDE"/>
<path d="M165.282 597.373C153.422 585.175 148.128 579.977 147.901 579.76L145.538 577.446L133.166 590.145L135.518 592.46C135.518 592.46 140.959 597.806 152.604 609.776C160.817 618.223 166.611 628.756 169.338 640.235C177.267 673.545 157.091 707.459 124.362 715.838C108.048 720.01 91.1442 717.514 76.7733 708.793C62.4138 700.095 52.3485 686.29 48.4406 669.966L45.2029 654.462L45.3619 654.428L44.6008 651.213C42.874 643.975 44.1691 636.542 48.2361 630.295C52.2917 624.048 58.5627 619.864 65.8787 618.519C79.1476 616.08 92.5302 624.333 96.3472 637.306C100.267 650.598 93.6094 664.574 80.8631 669.829C76.8188 671.493 74.6148 675.814 75.6373 680.1C76.2394 682.631 77.9094 684.762 80.2155 685.948C82.5217 687.134 85.2254 687.248 87.6225 686.256C108.469 677.649 119.602 654.713 113.513 632.906C110.559 622.315 103.482 613.15 93.5867 607.131C83.6918 601.101 72.3428 599.026 61.6072 601.272C51.5079 603.392 40.477 610.163 33.3654 618.474C32.4793 616.068 31.5364 613.595 30.5594 611.007L30.5367 610.938C25.6063 597.966 20.0056 583.271 19.199 570.755C18.9832 567.392 17.1087 564.451 14.3027 563.094C12.5305 562.228 10.5651 561.988 8.63387 562.399C4.13517 563.345 0.181766 567.905 0 572.396L0 572.487L0 572.533C0.170405 584.548 6.69125 602.229 14.2345 622.703C19.9942 638.309 26.5151 655.99 31.1842 673.819L31.2183 673.978C36.2282 695.045 49.1676 712.817 67.651 724.023C80.1474 731.592 94.3932 735.594 108.844 735.594C115.092 735.594 121.385 734.853 127.52 733.371C127.94 733.268 128.349 733.165 128.77 733.063C149.059 727.865 166.259 714.835 177.222 696.367C188.128 677.98 191.456 656.583 186.594 636.12C183.118 621.517 175.756 608.123 165.316 597.373H165.282Z" fill="#F7EFDE"/>
<path d="M49.2354 590.97L50.5659 593.729L66.421 587.068L65.0018 583.958C54.9676 561.963 48.3928 541.506 44.9224 521.433L44.8115 520.981C44.0908 518.741 42.5608 516.932 40.4985 515.869C38.4362 514.806 36.0968 514.625 33.9015 515.36C29.4665 516.853 26.9829 521.738 28.3356 526.284C33.4025 551.186 40.2324 572.356 49.2243 590.981L49.2354 590.97Z" fill="#F7EFDE"/>
<path d="M86.4863 581.915L87.8484 584.972L104.875 577.386L103.513 574.375C91.7154 548.196 85.0203 523.774 82.4461 497.538L82.3538 497.013C81.742 494.721 80.2644 492.793 78.1866 491.607C76.1088 490.409 73.6847 490.089 71.3644 490.694C66.724 491.903 63.8381 496.614 64.8886 501.234C67.1165 527.675 74.3888 554.812 86.4747 581.904L86.4863 581.915Z" fill="#F7EFDE"/>
<path d="M122.678 574.496L124.505 577.966L138.085 567.635L137 565.246C126.424 542.001 124.277 532.808 122.632 503.772C122.506 501.485 121.456 499.38 119.685 497.844C117.858 496.262 115.425 495.477 113.015 495.682C110.628 495.887 108.469 497.013 106.939 498.845C105.397 500.688 104.689 503.009 104.917 505.399C107.852 535.254 109.2 548.885 122.689 574.519L122.678 574.496Z" fill="#F7EFDE"/>
<path d="M208.894 560.553C206.233 553.805 197.888 553.896 193.118 558.258C180.025 566.948 171.296 590.177 171.296 590.177L182.618 605.989C182.618 605.989 187.547 601.911 191.212 591.063C195.396 573.934 213.913 572.15 208.894 560.553Z" fill="#F7EFDE"/>
<path d="M165.282 352.175C153.422 339.977 148.128 334.779 147.901 334.563L145.538 332.249L133.166 344.948L135.518 347.262C135.518 347.262 140.959 352.608 152.604 364.578C160.817 373.025 166.611 383.558 169.338 395.038C177.267 428.347 157.091 462.261 124.362 470.64C108.048 474.812 91.1442 472.316 76.7733 463.595C62.4138 454.897 52.3485 441.092 48.4406 424.768L45.2029 409.264L45.3619 409.23L44.6008 406.016C42.874 398.777 44.1691 391.344 48.2361 385.097C52.2917 378.85 58.5627 374.667 65.8787 373.321C79.1476 370.882 92.5302 379.135 96.3472 392.108C100.267 405.4 93.6094 419.376 80.8631 424.631C76.8188 426.296 74.6148 430.616 75.6373 434.902C76.2394 437.433 77.9094 439.565 80.2155 440.75C82.5217 441.936 85.2254 442.05 87.6225 441.058C108.469 432.451 119.602 409.515 113.513 387.708C110.559 377.118 103.482 367.952 93.5867 361.933C83.6918 355.903 72.3428 353.828 61.6072 356.074C51.5079 358.194 40.477 364.965 33.3654 373.276C32.4793 370.87 31.5364 368.397 30.5594 365.809L30.5367 365.741C25.6063 352.768 20.0056 338.074 19.199 325.557C18.9832 322.194 17.1087 319.253 14.3027 317.896C12.5305 317.03 10.5651 316.791 8.63387 317.201C4.13517 318.147 0.181766 322.707 0 327.198L0 327.29L0 327.335C0.170405 339.35 6.69125 357.031 14.2345 377.505C19.9942 393.111 26.5151 410.792 31.1842 428.621L31.2183 428.781C36.2282 449.847 49.1676 467.619 67.651 478.825C80.1474 486.394 94.3932 490.396 108.844 490.396C115.092 490.396 121.385 489.655 127.52 488.173C127.94 488.07 128.349 487.968 128.77 487.865C149.059 482.667 166.259 469.637 177.222 451.17C188.128 432.782 191.456 411.385 186.594 390.922C183.118 376.32 175.756 362.925 165.316 352.175H165.282Z" fill="#F7EFDE"/>
<path d="M49.2354 345.772L50.5659 348.531L66.421 341.87L65.0018 338.761C54.9676 316.765 48.3928 296.308 44.9224 276.235L44.8115 275.783C44.0908 273.544 42.5608 271.734 40.4985 270.671C38.4362 269.608 36.0968 269.427 33.9015 270.162C29.4665 271.655 26.9829 276.54 28.3356 281.086C33.4025 305.988 40.2324 327.158 49.2243 345.783L49.2354 345.772Z" fill="#F7EFDE"/>
<path d="M86.4863 336.717L87.8484 339.774L104.875 332.189L103.513 329.177C91.7154 302.998 85.0203 278.576 82.4461 252.34L82.3538 251.816C81.742 249.523 80.2644 247.595 78.1866 246.409C76.1088 245.211 73.6847 244.892 71.3644 245.496C66.724 246.705 63.8381 251.416 64.8886 256.036C67.1165 282.477 74.3888 309.614 86.4747 336.706L86.4863 336.717Z" fill="#F7EFDE"/>
<path d="M122.678 329.298L124.505 332.769L138.085 322.438L137 320.048C126.424 296.803 124.277 287.61 122.632 258.574C122.506 256.287 121.456 254.182 119.685 252.646C117.858 251.064 115.425 250.279 113.015 250.484C110.628 250.689 108.469 251.815 106.939 253.647C105.397 255.49 104.689 257.811 104.917 260.201C107.852 290.056 109.2 303.687 122.689 329.321L122.678 329.298Z" fill="#F7EFDE"/>
<path d="M208.894 315.355C206.233 308.607 197.888 308.698 193.118 313.06C180.025 321.75 171.296 344.979 171.296 344.979L182.618 360.791C182.618 360.791 187.547 356.713 191.212 345.865C195.396 328.736 213.913 326.952 208.894 315.355Z" fill="#F7EFDE"/>
<path d="M375.032 106.977C363.172 94.7796 357.878 89.5814 357.651 89.3648L355.288 87.0506L342.916 99.7498L345.268 102.064C345.268 102.064 350.709 107.41 362.354 119.38C370.567 127.827 376.361 138.36 379.088 149.84C387.017 183.15 366.841 217.064 334.112 225.442C317.798 229.615 300.894 227.118 286.523 218.397C272.164 209.699 262.099 195.894 258.191 179.57L254.953 164.067L255.112 164.032L254.351 160.818C252.624 153.579 253.919 146.146 257.986 139.899C262.042 133.652 268.313 129.469 275.629 128.124C288.898 125.684 302.28 133.937 306.097 146.91C310.017 160.202 303.359 174.178 290.613 179.433C286.569 181.098 284.365 185.418 285.387 189.704C285.989 192.235 287.659 194.367 289.966 195.552C292.272 196.738 294.975 196.852 297.372 195.86C318.219 187.253 329.352 164.317 323.263 142.51C320.309 131.92 313.232 122.754 303.337 116.735C293.442 110.705 282.093 108.63 271.357 110.876C261.258 112.996 250.227 119.768 243.115 128.078C242.229 125.673 241.286 123.199 240.309 120.611L240.287 120.543C235.356 107.57 229.756 92.8758 228.949 80.359C228.733 76.9961 226.859 74.055 224.053 72.6985C222.28 71.8321 220.315 71.5927 218.384 72.0031C213.885 72.9493 209.932 77.5091 209.75 82.0006V82.0918V82.1374C209.92 94.1526 216.441 111.833 223.985 132.307C229.744 147.913 236.265 165.594 240.934 183.423L240.968 183.583C245.978 204.649 258.918 222.421 277.401 233.627C289.897 241.197 304.143 245.198 318.594 245.198C324.842 245.198 331.135 244.457 337.27 242.975C337.69 242.872 338.099 242.77 338.52 242.667C358.809 237.469 376.009 224.439 386.972 205.972C397.878 187.584 401.206 166.187 396.344 145.725C392.868 131.122 385.506 117.727 375.066 106.977H375.032Z" fill="#F7EFDE"/>
<path d="M258.985 100.574L260.316 103.333L276.171 96.6726L274.752 93.5627C264.718 71.5674 258.143 51.11 254.672 31.0371L254.562 30.5848C253.841 28.3457 252.311 26.5363 250.249 25.4733C248.186 24.4103 245.847 24.2293 243.651 24.9644C239.216 26.4571 236.733 31.3425 238.086 35.8886C243.153 60.7902 249.982 81.96 258.974 100.585L258.985 100.574Z" fill="#F7EFDE"/>
<path d="M375.032 597.373C363.172 585.175 357.878 579.977 357.651 579.76L355.288 577.446L342.916 590.145L345.268 592.46C345.268 592.46 350.709 597.806 362.354 609.776C370.567 618.223 376.361 628.756 379.088 640.235C387.017 673.545 366.841 707.459 334.112 715.838C317.798 720.01 300.894 717.514 286.523 708.793C272.164 700.095 262.099 686.29 258.191 669.966L254.953 654.462L255.112 654.428L254.351 651.213C252.624 643.975 253.919 636.542 257.986 630.295C262.042 624.048 268.313 619.864 275.629 618.519C288.898 616.08 302.28 624.333 306.097 637.306C310.017 650.598 303.359 664.574 290.613 669.829C286.569 671.493 284.365 675.814 285.387 680.1C285.989 682.631 287.659 684.762 289.966 685.948C292.272 687.134 294.975 687.248 297.372 686.256C318.219 677.649 329.352 654.713 323.263 632.906C320.309 622.315 313.232 613.15 303.337 607.131C293.442 601.101 282.093 599.026 271.357 601.272C261.258 603.392 250.227 610.163 243.115 618.474C242.229 616.068 241.286 613.595 240.309 611.007L240.287 610.938C235.356 597.966 229.756 583.271 228.949 570.755C228.733 567.392 226.859 564.451 224.053 563.094C222.28 562.228 220.315 561.988 218.384 562.399C213.885 563.345 209.932 567.905 209.75 572.396V572.487V572.533C209.92 584.548 216.441 602.229 223.985 622.703C229.744 638.309 236.265 655.99 240.934 673.819L240.968 673.978C245.978 695.045 258.918 712.817 277.401 724.023C289.897 731.592 304.143 735.594 318.594 735.594C324.842 735.594 331.135 734.853 337.27 733.371C337.69 733.268 338.099 733.165 338.52 733.063C358.809 727.865 376.009 714.835 386.972 696.367C397.878 677.98 401.206 656.583 396.344 636.12C392.868 621.517 385.506 608.123 375.066 597.373H375.032Z" fill="#F7EFDE"/>
<path d="M258.985 590.97L260.316 593.729L276.171 587.068L274.752 583.958C264.718 561.963 258.143 541.506 254.672 521.433L254.562 520.981C253.841 518.741 252.311 516.932 250.249 515.869C248.186 514.806 245.847 514.625 243.651 515.36C239.216 516.853 236.733 521.738 238.086 526.284C243.153 551.186 249.982 572.356 258.974 590.981L258.985 590.97Z" fill="#F7EFDE"/>
<path d="M375.032 352.175C363.172 339.977 357.878 334.779 357.651 334.563L355.288 332.249L342.916 344.948L345.268 347.262C345.268 347.262 350.709 352.608 362.354 364.578C370.567 373.025 376.361 383.558 379.088 395.038C387.017 428.347 366.841 462.261 334.112 470.64C317.798 474.812 300.894 472.316 286.523 463.595C272.164 454.897 262.099 441.092 258.191 424.768L254.953 409.264L255.112 409.23L254.351 406.016C252.624 398.777 253.919 391.344 257.986 385.097C262.042 378.85 268.313 374.667 275.629 373.321C288.898 370.882 302.28 379.135 306.097 392.108C310.017 405.4 303.359 419.376 290.613 424.631C286.569 426.296 284.365 430.616 285.387 434.902C285.989 437.433 287.659 439.565 289.966 440.75C292.272 441.936 294.975 442.05 297.372 441.058C318.219 432.451 329.352 409.515 323.263 387.708C320.309 377.118 313.232 367.952 303.337 361.933C293.442 355.903 282.093 353.828 271.357 356.074C261.258 358.194 250.227 364.965 243.115 373.276C242.229 370.87 241.286 368.397 240.309 365.809L240.287 365.741C235.356 352.768 229.756 338.074 228.949 325.557C228.733 322.194 226.859 319.253 224.053 317.896C222.28 317.03 220.315 316.791 218.384 317.201C213.885 318.147 209.932 322.707 209.75 327.198V327.29V327.335C209.92 339.35 216.441 357.031 223.985 377.505C229.744 393.111 236.265 410.792 240.934 428.621L240.968 428.781C245.978 449.847 258.918 467.619 277.401 478.825C289.897 486.394 304.143 490.396 318.594 490.396C324.842 490.396 331.135 489.655 337.27 488.173C337.69 488.07 338.099 487.968 338.52 487.865C358.809 482.667 376.009 469.637 386.972 451.17C397.878 432.782 401.206 411.385 396.344 390.922C392.868 376.32 385.506 362.925 375.066 352.175H375.032Z" fill="#F7EFDE"/>
<path d="M258.985 345.772L260.316 348.531L276.171 341.87L274.752 338.761C264.718 316.765 258.143 296.308 254.672 276.235L254.562 275.783C253.841 273.544 252.311 271.734 250.249 270.671C248.186 269.608 245.847 269.427 243.651 270.162C239.216 271.655 236.733 276.54 238.086 281.086C243.153 305.988 249.982 327.158 258.974 345.783L258.985 345.772Z" fill="#F7EFDE"/>
</g>
<defs>
<clipPath id="clip0_158_257">
<rect width="274" height="585" fill="white"/>
</clipPath>
</defs>
</svg>
