<svg xmlns="http://www.w3.org/2000/svg" width="68" height="18" viewBox="0 0 68 18" fill="none">
  <path d="M22.4104 11.0189C22.2029 10.7143 21.9559 10.3873 21.6693 10.0378C21.3927 9.67943 21.0863 9.32551 20.7504 8.97607C20.4243 8.61768 20.0834 8.2772 19.7276 7.95464C19.3719 7.62313 19.0162 7.33193 18.6604 7.08105V17.1809H16.3481V1.70511H18.6604V5.22635C19.2632 4.65292 19.866 4.05708 20.4687 3.43885C21.0814 2.81166 21.6496 2.23374 22.1733 1.70511H24.9154C24.2138 2.45774 23.5073 3.18349 22.7958 3.88237C22.0942 4.58124 21.3531 5.28459 20.5725 5.99242C21.3927 6.61066 22.1832 7.34537 22.9441 8.19656C23.7148 9.04775 24.451 9.98854 25.1526 11.0189H22.4104Z" fill="#455F50"/>
  <path d="M28.0184 11.0189H25.8099V3.94957H28.0184V11.0189ZM28.2259 1.90671C28.2259 2.27406 28.0925 2.56526 27.8257 2.7803C27.5688 2.98638 27.2624 3.08941 26.9067 3.08941C26.551 3.08941 26.2397 2.98638 25.9729 2.7803C25.716 2.56526 25.5875 2.27406 25.5875 1.90671C25.5875 1.53935 25.716 1.25263 25.9729 1.04655C26.2397 0.831517 26.551 0.723998 26.9067 0.723998C27.2624 0.723998 27.5688 0.831517 27.8257 1.04655C28.0925 1.25263 28.2259 1.53935 28.2259 1.90671Z" fill="#455F50"/>
  <path d="M29.9681 2.18894L32.1766 1.86639V3.94957H34.8298V5.61611H32.1766V8.10248C32.1766 8.5236 32.2556 8.8596 32.4137 9.11047C32.5817 9.36135 32.9128 9.48679 33.4068 9.48679C33.644 9.48679 33.8861 9.46887 34.1331 9.43303C34.39 9.38823 34.6223 9.32999 34.8298 9.25831L35.141 10.8173C34.8742 10.9159 34.5778 11.001 34.2517 11.0727C33.9256 11.1444 33.5254 11.1802 33.0511 11.1802C32.4483 11.1802 31.9493 11.1085 31.554 10.9652C31.1588 10.8129 30.8426 10.6068 30.6054 10.3469C30.3683 10.0781 30.2003 9.75559 30.1015 9.37927C30.0125 9.00295 29.9681 8.58632 29.9681 8.12936V2.18894Z" fill="#455F50"/>
  <path d="M35.9682 7.48425C35.9682 6.97353 36.0571 6.49418 36.235 6.04618C36.4227 5.58923 36.6895 5.19499 37.0354 4.86348C37.3812 4.523 37.8012 4.2542 38.2953 4.05708C38.7894 3.85997 39.3526 3.76141 39.985 3.76141C40.4 3.76141 40.7805 3.79725 41.1263 3.86893C41.4722 3.93165 41.8082 4.02572 42.1343 4.15116L41.6748 5.75051C41.4672 5.67883 41.24 5.61611 40.9929 5.56235C40.7459 5.50859 40.4692 5.48171 40.1629 5.48171C39.5107 5.48171 39.0216 5.66539 38.6955 6.03274C38.3793 6.4001 38.2212 6.88394 38.2212 7.48425C38.2212 8.1204 38.3694 8.6132 38.6658 8.96263C38.9722 9.31207 39.5008 9.48679 40.2518 9.48679C40.5186 9.48679 40.8052 9.46439 41.1115 9.41959C41.4178 9.37479 41.6995 9.30311 41.9564 9.20455L42.2677 10.8442C42.0107 10.9428 41.6896 11.0279 41.3042 11.0996C40.9188 11.1713 40.4939 11.2071 40.0295 11.2071C39.318 11.2071 38.7054 11.113 38.1915 10.9249C37.6777 10.7277 37.2528 10.4634 36.9168 10.1319C36.5907 9.80039 36.3486 9.41063 36.1905 8.96263C36.0423 8.50568 35.9682 8.01288 35.9682 7.48425Z" fill="#455F50"/>
  <path d="M43.7499 11.0189V0.912156L45.9584 0.5896V3.97644C46.1066 3.93165 46.2944 3.89133 46.5216 3.85549C46.7588 3.81069 46.9861 3.78829 47.2035 3.78829C47.8359 3.78829 48.3596 3.86893 48.7746 4.0302C49.1995 4.18252 49.5355 4.40204 49.7825 4.68876C50.0395 4.97547 50.2173 5.31595 50.3161 5.71019C50.4248 6.10442 50.4792 6.54346 50.4792 7.02729V11.0189H48.2707V7.26921C48.2707 6.6241 48.1768 6.16714 47.989 5.89835C47.8112 5.62955 47.4752 5.49515 46.9811 5.49515C46.7835 5.49515 46.5958 5.51307 46.4179 5.54891C46.2499 5.57579 46.0967 5.60715 45.9584 5.64299V11.0189H43.7499Z" fill="#455F50"/>
  <path d="M51.5852 7.53801C51.5852 6.91082 51.689 6.36426 51.8965 5.89835C52.1139 5.42347 52.3955 5.02923 52.7413 4.71564C53.0872 4.40204 53.4825 4.1646 53.9271 4.00333C54.3817 3.84205 54.8461 3.76141 55.3204 3.76141C56.4271 3.76141 57.3017 4.07052 57.944 4.68876C58.5863 5.29803 58.9074 6.1985 58.9074 7.39017C58.9074 7.50665 58.9025 7.63657 58.8926 7.77993C58.8827 7.91433 58.8728 8.03528 58.8629 8.1428H53.853C53.9024 8.55496 54.1149 8.882 54.4904 9.12391C54.8659 9.36583 55.3698 9.48679 56.0022 9.48679C56.4074 9.48679 56.8026 9.45543 57.188 9.39271C57.5833 9.32103 57.9044 9.23591 58.1515 9.13735L58.4479 10.7636C58.3293 10.8173 58.1712 10.8711 57.9736 10.9249C57.776 10.9786 57.5536 11.0234 57.3066 11.0593C57.0694 11.1041 56.8125 11.1399 56.5358 11.1668C56.2592 11.1937 55.9825 11.2071 55.7058 11.2071C55.0042 11.2071 54.3916 11.113 53.8678 10.9249C53.354 10.7367 52.9241 10.4813 52.5783 10.1588C52.2423 9.82727 51.9903 9.43751 51.8224 8.98951C51.6643 8.54152 51.5852 8.05768 51.5852 7.53801ZM56.773 6.77194C56.7631 6.6017 56.7285 6.43594 56.6692 6.27466C56.6198 6.11338 56.5358 5.97003 56.4173 5.84459C56.3086 5.71915 56.1653 5.61611 55.9874 5.53547C55.8194 5.45483 55.607 5.41451 55.3501 5.41451C55.103 5.41451 54.8906 5.45483 54.7127 5.53547C54.5348 5.60715 54.3866 5.70571 54.268 5.83115C54.1495 5.95659 54.0556 6.10442 53.9864 6.27466C53.9271 6.43594 53.8827 6.6017 53.853 6.77194H56.773Z" fill="#455F50"/>
  <path d="M60.6117 4.19148C60.9872 4.09292 61.4714 4.00332 62.0643 3.92269C62.6572 3.83309 63.2797 3.78829 63.9319 3.78829C64.594 3.78829 65.1424 3.86893 65.5772 4.0302C66.0219 4.18252 66.3727 4.40204 66.6296 4.68876C66.8865 4.97547 67.0693 5.31595 67.178 5.71019C67.2867 6.10442 67.341 6.54346 67.341 7.02729V11.0189H65.1325V7.26921C65.1325 6.6241 65.0387 6.16714 64.8509 5.89835C64.6632 5.62955 64.3124 5.49515 63.7985 5.49515C63.6404 5.49515 63.4724 5.50411 63.2946 5.52203C63.1167 5.53099 62.9586 5.54443 62.8203 5.56235V11.0189H60.6117V4.19148Z" fill="#455F50"/>
  <path d="M7.07722 3.6577H9.71859V14.3245H7.07722V9.79906H2.64137V14.3245H0V3.6577H2.64137V7.73682H7.07722V3.6577Z" fill="#455F50"/>
  <path d="M14.1459 3.88841C14.1459 4.30924 13.9962 4.6402 13.6973 4.88129C13.3979 5.12239 13.0453 5.24293 12.6389 5.24293C12.2326 5.24293 11.8795 5.12239 11.5806 4.88129C11.2812 4.6402 11.132 4.30924 11.132 3.88841C11.132 3.46758 11.2812 3.13705 11.5806 2.89553C11.8795 2.65444 12.2326 2.53389 12.6389 2.53389C13.0453 2.53389 13.3979 2.65444 13.6973 2.89553C13.9962 3.13662 14.1459 3.46758 14.1459 3.88841ZM13.9088 14.3245H11.3862V6.22804H13.9088V14.3245Z" fill="#455F50"/>
  <path d="M14.0309 15.7892H0.122151V17.1601H14.0309V15.7892Z" fill="#455F50"/>
  <path d="M66.8183 13.2923H20.055V14.8045H66.8183V13.2923Z" fill="#455F50"/>
</svg>