<svg width="69" height="24" viewBox="0 0 69 24" fill="none" xmlns="http://www.w3.org/2000/svg">
<path d="M30.8293 4.56392H33.942V17.7145H30.8293V12.1353H25.6018V17.7145H22.4891V4.56392H25.6018V9.59286H30.8293V4.56392Z" fill="#131540"/>
<path d="M39.1594 4.84837C39.1594 5.36719 38.983 5.77521 38.6307 6.07244C38.2779 6.36967 37.8623 6.51829 37.3835 6.51829C36.9046 6.51829 36.4885 6.36967 36.1363 6.07244C35.7834 5.77521 35.6076 5.36719 35.6076 4.84837C35.6076 4.32955 35.7834 3.92205 36.1363 3.62429C36.4885 3.32706 36.9046 3.17844 37.3835 3.17844C37.8623 3.17844 38.2779 3.32706 38.6307 3.62429C38.983 3.92152 39.1594 4.32955 39.1594 4.84837ZM38.8799 17.7145H35.9072V7.73278H38.8799V17.7145Z" fill="#131540"/>
<path d="M44.8237 3.91353C46.8852 3.91353 48.4679 4.25817 49.5723 4.94798C50.6761 5.63778 51.2283 6.76651 51.2283 8.33523C51.2283 9.90394 50.6694 11.0582 49.5521 11.7603C48.4348 12.4624 46.8387 12.8134 44.7637 12.8134H43.7859V24H40.6732V4.25497C41.3514 4.12873 42.0699 4.03977 42.8282 3.98917C43.5865 3.93857 44.2513 3.913 44.8237 3.913V3.91353ZM45.023 6.43732C44.7968 6.43732 44.5739 6.44371 44.3549 6.4565C44.1354 6.46928 43.9461 6.48207 43.7865 6.49432V10.2896H44.7643C45.8418 10.2896 46.6528 10.1506 47.1982 9.87198C47.7437 9.59393 48.0165 9.07511 48.0165 8.31605C48.0165 7.94904 47.9465 7.64542 47.807 7.40518C47.6676 7.16495 47.4676 6.97212 47.2083 6.82617C46.949 6.68075 46.6326 6.57955 46.2607 6.52255C45.8883 6.46555 45.4756 6.43732 45.0236 6.43732H45.023Z" fill="#131540"/>
<path d="M56.3387 4.47869C57.2169 4.47869 57.9477 4.57351 58.5335 4.76314C59.1188 4.95277 59.5875 5.22496 59.9404 5.57919C60.2926 5.93342 60.5419 6.36381 60.6886 6.86985C60.8348 7.37589 60.9081 7.93892 60.9081 8.55895V14.4418C60.4825 14.5302 59.8905 14.6346 59.1322 14.755C58.3739 14.8748 57.456 14.935 56.379 14.935C55.7008 14.935 55.0853 14.878 54.5337 14.764C53.9815 14.65 53.506 14.4636 53.1073 14.2042C52.708 13.9448 52.4022 13.6065 52.1894 13.1889C51.9765 12.7713 51.8701 12.2589 51.8701 11.6516C51.8701 11.0444 51.9928 10.5767 52.2392 10.1713C52.4851 9.76651 52.8144 9.44425 53.2266 9.20348C53.6388 8.96325 54.1109 8.78906 54.6429 8.68146C55.1749 8.5744 55.7266 8.52006 56.299 8.52006C56.6848 8.52006 57.027 8.53604 57.3266 8.56747C57.6257 8.59943 57.8682 8.64045 58.0547 8.69105V8.42525C58.0547 7.94478 57.9018 7.55859 57.596 7.26776C57.2897 6.97692 56.7582 6.8315 55.9999 6.8315C55.4942 6.8315 54.9952 6.86665 54.5035 6.9359C54.0112 7.00568 53.5855 7.10369 53.2266 7.22994L52.8474 4.95277C53.0199 4.90217 53.2366 4.84837 53.4959 4.79137C53.7552 4.73437 54.0375 4.6843 54.3438 4.63956C54.6496 4.59535 54.9722 4.55753 55.3116 4.52557C55.651 4.49414 55.9932 4.47816 56.3393 4.47816L56.3387 4.47869ZM56.5784 12.7527C56.8708 12.7527 57.1502 12.7463 57.4162 12.7335C57.6823 12.7212 57.8951 12.7021 58.0547 12.6765V10.532C57.9348 10.5069 57.7556 10.4814 57.5159 10.4563C57.2768 10.4313 57.0573 10.4185 56.8573 10.4185C56.5779 10.4185 56.3152 10.4345 56.0693 10.4659C55.8229 10.4979 55.6067 10.5581 55.4208 10.646C55.2343 10.7344 55.0881 10.8548 54.9817 11.0066C54.8753 11.1584 54.8221 11.348 54.8221 11.576C54.8221 12.0192 54.9784 12.3255 55.2909 12.4964C55.6034 12.6674 56.0324 12.7527 56.5779 12.7527H56.5784Z" fill="#131540"/>
<path d="M67.7911 14.9158C66.9263 14.9031 66.2246 14.8146 65.6864 14.65C65.1476 14.486 64.722 14.2548 64.4095 13.9576C64.097 13.6603 63.8836 13.2997 63.7711 12.8757C63.6579 12.4522 63.6014 11.9744 63.6014 11.4428V0.455433L66.5741 0V10.8734C66.5741 11.1264 66.5942 11.3544 66.634 11.5563C66.6738 11.7587 66.7505 11.9297 66.8636 12.0687C66.9768 12.2083 67.1397 12.3217 67.3525 12.4102C67.5654 12.4986 67.8515 12.5556 68.2105 12.5811L67.7916 14.9153L67.7911 14.9158Z" fill="#131540"/>
<path d="M38.8805 18.8453H22.4897V20.5355H38.8805V18.8453Z" fill="#131540"/>
<path d="M68.21 16.1996H45.0566V17.8897H68.21V16.1996Z" fill="#131540"/>
<path d="M13.8992 10.777C12.9017 9.80486 12.4565 9.39045 12.438 9.3734L12.2398 9.1891L11.1998 10.2012L11.398 10.3855C11.4025 10.3897 11.8556 10.8116 12.834 11.7656C13.5245 12.4389 14.0112 13.2784 14.2408 14.1935C14.9072 16.8478 13.2109 19.5506 10.4594 20.2186C9.08839 20.551 7.667 20.3517 6.45786 19.6571C5.25041 18.9636 4.40418 17.8636 4.07544 16.5629L3.80326 15.3276L3.8167 15.3244L3.75229 15.0682C3.6078 14.4913 3.71589 13.8995 4.05752 13.4009C4.39858 12.9029 4.92502 12.57 5.54051 12.4629C6.65556 12.2685 7.78069 12.9263 8.10215 13.9602C8.43146 15.0192 7.87197 16.1335 6.80061 16.5517C6.4601 16.6848 6.27529 17.0289 6.36098 17.3699C6.41138 17.5712 6.55195 17.7411 6.74573 17.8354C6.9395 17.9297 7.16632 17.9387 7.36794 17.8599C9.12031 17.1744 10.0561 15.3468 9.54427 13.6081C9.29561 12.7638 8.70084 12.0341 7.86917 11.5542C7.03751 11.0737 6.08264 10.908 5.1804 11.0875C4.33194 11.2564 3.40395 11.7965 2.80638 12.4581C2.73189 12.2663 2.65293 12.0692 2.57004 11.8631L2.5678 11.8572C2.15281 10.8239 1.68293 9.65199 1.61517 8.65536C1.59668 8.38743 1.43931 8.15305 1.20353 8.04439C1.054 7.97567 0.889349 7.95597 0.726377 7.98899C0.348347 8.0641 0.0156812 8.42738 0 8.78587V8.79652C0.0140011 9.75426 0.562284 11.1632 1.19737 12.7942C1.68125 14.0375 2.22953 15.4464 2.62268 16.8675L2.62549 16.8803C3.0472 18.5593 4.1348 19.9757 5.68892 20.8684C6.73957 21.4719 7.93694 21.791 9.15224 21.791C9.67756 21.791 10.2062 21.7314 10.7226 21.6142C10.7573 21.6062 10.7926 21.5982 10.8273 21.5897C12.5327 21.1758 13.9793 20.1371 14.9005 18.6658C15.8179 17.201 16.0973 15.4959 15.6879 13.8649C15.3956 12.7015 14.7773 11.6335 13.8986 10.7775L13.8992 10.777Z" fill="#131540"/>
<path d="M4.20985 10.3061L4.32466 10.5277L5.6906 9.99236L5.56796 9.74254C4.70325 7.97567 4.1376 6.33292 3.83854 4.71999L3.82902 4.68324C3.76685 4.50373 3.63524 4.35778 3.45771 4.27255C3.28018 4.18732 3.07856 4.17294 2.88983 4.23207C2.50788 4.35138 2.29394 4.7445 2.41043 5.10938C2.8467 7.11009 3.43531 8.80984 4.20985 10.3066V10.3061Z" fill="#131540"/>
<path d="M7.19544 9.49751L7.30801 9.74094L8.71708 9.13743L8.60507 8.89773C7.62948 6.81285 7.07559 4.86861 6.86222 2.77894L6.85437 2.73686C6.80341 2.55415 6.68132 2.40128 6.50939 2.30593C6.33802 2.21111 6.13752 2.18501 5.94486 2.23349C5.56067 2.3299 5.32154 2.70543 5.4089 3.07351C5.59372 5.17862 6.19464 7.3402 7.19544 9.49805V9.49751Z" fill="#131540"/>
<path d="M10.3014 8.96111L10.4543 9.2381L11.5895 8.413L11.4983 8.22177C10.6139 6.36648 10.4342 5.63246 10.297 3.31321C10.2863 3.1305 10.1984 2.96218 10.0505 2.8402C9.89765 2.71396 9.69436 2.6511 9.49274 2.66761C9.29337 2.68359 9.11247 2.77361 8.98422 2.9201C8.85597 3.06712 8.79549 3.25302 8.81565 3.44318C9.06151 5.82688 9.17352 6.91513 10.302 8.96111H10.3014Z" fill="#F2634C"/>
<path d="M17.6139 7.82067C17.3888 7.28161 16.6815 7.288 16.2777 7.63743C15.1688 8.33256 14.4301 10.19 14.4301 10.19L15.3889 11.4545C15.3889 11.4545 15.8061 11.1286 16.1164 10.2608C16.4709 8.8908 18.0385 8.74805 17.6139 7.82067Z" fill="#131540"/>
</svg>
