<svg xmlns="http://www.w3.org/2000/svg" width="68" height="19" viewBox="0 0 68 19" fill="none">
  <path d="M44.0146 14.9073H20.806V16.6258H44.0146V14.9073Z" fill="#006494"/>
  <path d="M67.3192 14.9073H48.6274V16.6258H67.3192V14.9073Z" fill="#006494"/>
  <path d="M7.15573 2.9761H9.8264V15.0983H7.15573V9.95539H2.67067V15.0983H0V2.9761H2.67067V7.61178H7.15573V2.9761Z" fill="#006494"/>
  <path d="M14.3028 3.23829C14.3028 3.71654 14.1515 4.09266 13.8492 4.36665C13.5465 4.64063 13.19 4.77763 12.7791 4.77763C12.3683 4.77763 12.0113 4.64063 11.709 4.36665C11.4063 4.09266 11.2554 3.71654 11.2554 3.23829C11.2554 2.76005 11.4063 2.38442 11.709 2.10994C12.0113 1.83596 12.3683 1.69896 12.7791 1.69896C13.19 1.69896 13.5465 1.83596 13.8492 2.10994C14.1515 2.38393 14.3028 2.76005 14.3028 3.23829ZM14.063 15.0983H11.5125V5.89714H14.063V15.0983Z" fill="#006494"/>
  <path d="M14.1865 16.7628H0.123506V18.3208H14.1865V16.7628Z" fill="#006494"/>
  <path d="M19.8032 1.49414C21.4905 1.49414 22.786 1.80005 23.6895 2.41188C24.5931 3.01258 25.0448 4.00262 25.0448 5.38201C25.0448 6.77253 24.5876 7.77926 23.6732 8.40221C22.7588 9.01403 21.4524 9.31995 19.7542 9.31995H18.9541V18.1013H16.4067V1.79449C16.9619 1.68325 17.5498 1.60538 18.1703 1.56088C18.7908 1.51639 19.3351 1.49414 19.8032 1.49414ZM19.9665 3.7134C19.7814 3.7134 19.5963 3.71896 19.4113 3.73008C19.2371 3.74121 19.0847 3.75233 18.9541 3.76346V7.10069H19.7542C20.636 7.10069 21.3 6.97832 21.7463 6.73359C22.1927 6.48886 22.4158 6.03277 22.4158 5.36533C22.4158 5.04273 22.356 4.77575 22.2362 4.56439C22.1274 4.35303 21.9641 4.18617 21.7463 4.06381C21.5395 3.93032 21.2837 3.84132 20.9789 3.79683C20.6741 3.74121 20.3366 3.7134 19.9665 3.7134Z" fill="#006494"/>
  <path d="M25.8434 8.86942C25.8434 8.09073 25.9577 7.41216 26.1863 6.83371C26.4258 6.24413 26.7361 5.75467 27.1171 5.36533C27.4981 4.97598 27.9335 4.68119 28.4234 4.48096C28.9242 4.28073 29.4358 4.18061 29.9584 4.18061C31.1776 4.18061 32.141 4.56439 32.8486 5.33195C33.5562 6.08839 33.91 7.20637 33.91 8.68587C33.91 8.83049 33.9046 8.99178 33.8937 9.16977C33.8828 9.33663 33.8719 9.48681 33.861 9.6203H28.3418C28.3962 10.132 28.6303 10.538 29.0439 10.8384C29.4576 11.1387 30.0128 11.2889 30.7095 11.2889C31.1558 11.2889 31.5913 11.25 32.0158 11.1721C32.4513 11.0831 32.8051 10.9774 33.0772 10.8551L33.4038 12.8741C33.2732 12.9408 33.099 13.0076 32.8813 13.0743C32.6635 13.1411 32.4186 13.1967 32.1465 13.2412C31.8852 13.2968 31.6022 13.3413 31.2973 13.3747C30.9925 13.4081 30.6877 13.4247 30.3829 13.4247C29.61 13.4247 28.9351 13.3079 28.3581 13.0743C27.792 12.8407 27.3185 12.5237 26.9375 12.1232C26.5673 11.7116 26.2898 11.2277 26.1047 10.6715C25.9305 10.1153 25.8434 9.51462 25.8434 8.86942ZM31.5586 7.91831C31.5477 7.70695 31.5096 7.50115 31.4443 7.30092C31.3899 7.10069 31.2973 6.9227 31.1667 6.76696C31.047 6.61123 30.8891 6.4833 30.6932 6.38318C30.5081 6.28306 30.2741 6.23301 29.991 6.23301C29.7189 6.23301 29.4848 6.28306 29.2889 6.38318C29.0929 6.47218 28.9296 6.59454 28.799 6.75028C28.6684 6.90602 28.5649 7.08956 28.4887 7.30092C28.4234 7.50115 28.3744 7.70695 28.3418 7.91831H31.5586Z" fill="#006494"/>
  <path d="M43.5602 8.78599C43.5602 9.47568 43.4623 10.1098 43.2663 10.6882C43.0704 11.2555 42.7873 11.745 42.4172 12.1566C42.0471 12.5571 41.6008 12.8685 41.0782 13.091C40.5666 13.3135 39.9896 13.4247 39.3473 13.4247C38.716 13.4247 38.139 13.3135 37.6165 13.091C37.1048 12.8685 36.6639 12.5571 36.2938 12.1566C35.9237 11.745 35.6352 11.2555 35.4284 10.6882C35.2215 10.1098 35.1181 9.47568 35.1181 8.78599C35.1181 8.09629 35.2215 7.46778 35.4284 6.90045C35.6461 6.33312 35.94 5.84922 36.3101 5.44876C36.6911 5.04829 37.1375 4.73681 37.6491 4.51433C38.1716 4.29185 38.7377 4.18061 39.3473 4.18061C39.9678 4.18061 40.5339 4.29185 41.0456 4.51433C41.5681 4.73681 42.0144 5.04829 42.3846 5.44876C42.7547 5.84922 43.0432 6.33312 43.25 6.90045C43.4568 7.46778 43.5602 8.09629 43.5602 8.78599ZM41.0782 8.78599C41.0782 8.01843 40.9258 7.41772 40.621 6.98388C40.3271 6.53892 39.9025 6.31644 39.3473 6.31644C38.7922 6.31644 38.3622 6.53892 38.0573 6.98388C37.7525 7.41772 37.6001 8.01843 37.6001 8.78599C37.6001 9.55355 37.7525 10.1654 38.0573 10.6215C38.3622 11.0664 38.7922 11.2889 39.3473 11.2889C39.9025 11.2889 40.3271 11.0664 40.621 10.6215C40.9258 10.1654 41.0782 9.55355 41.0782 8.78599Z" fill="#006494"/>
  <path d="M50.6866 8.86942C50.6866 8.10186 50.5179 7.49003 50.1804 7.03394C49.843 6.56673 49.3422 6.33312 48.6782 6.33312C48.4604 6.33312 48.259 6.34425 48.074 6.3665C47.8889 6.37762 47.7365 6.39431 47.6168 6.41655V10.9051C47.7692 11.0052 47.9651 11.0887 48.2046 11.1554C48.455 11.2222 48.7054 11.2555 48.9557 11.2555C50.1097 11.2555 50.6866 10.4602 50.6866 8.86942ZM53.1687 8.80267C53.1687 9.48125 53.087 10.0986 52.9237 10.6548C52.7604 11.211 52.5209 11.6894 52.2052 12.0898C51.8895 12.4903 51.4976 12.8018 51.0295 13.0243C50.5614 13.2468 50.0226 13.358 49.413 13.358C49.0755 13.358 48.7598 13.3246 48.4659 13.2579C48.1719 13.1911 47.8889 13.0966 47.6168 12.9742V18.2421H45.1837V4.71457C45.4014 4.64782 45.6518 4.58664 45.9349 4.53102C46.2179 4.46427 46.5118 4.40865 46.8166 4.36416C47.1323 4.31966 47.448 4.28629 47.7637 4.26404C48.0903 4.23067 48.4006 4.21398 48.6945 4.21398C49.4021 4.21398 50.0335 4.32522 50.5887 4.5477C51.1438 4.75906 51.6119 5.06498 51.993 5.46544C52.374 5.85479 52.6625 6.33312 52.8584 6.90045C53.0652 7.46778 53.1687 8.10186 53.1687 8.80267Z" fill="#006494"/>
  <path d="M58.2064 13.358C57.4988 13.3469 56.9219 13.269 56.4756 13.1244C56.0401 12.9798 55.6918 12.7795 55.4305 12.5237C55.1801 12.2567 55.0059 11.9397 54.908 11.5726C54.8209 11.1944 54.7773 10.7716 54.7773 10.3044V0.643143L57.2104 0.242676V9.80384C57.2104 10.0263 57.2267 10.2266 57.2593 10.4045C57.292 10.5825 57.3519 10.7327 57.439 10.8551C57.5369 10.9774 57.673 11.0776 57.8472 11.1554C58.0214 11.2333 58.2554 11.2834 58.5494 11.3056L58.2064 13.358Z" fill="#006494"/>
  <path d="M59.2745 8.86942C59.2745 8.09073 59.3888 7.41216 59.6174 6.83371C59.8569 6.24413 60.1671 5.75467 60.5481 5.36533C60.9291 4.97598 61.3646 4.68119 61.8545 4.48096C62.3552 4.28073 62.8669 4.18061 63.3894 4.18061C64.6086 4.18061 65.5721 4.56439 66.2797 5.33195C66.9872 6.08839 67.341 7.20637 67.341 8.68587C67.341 8.83049 67.3356 8.99178 67.3247 9.16977C67.3138 9.33663 67.3029 9.48681 67.2921 9.6203H61.7728C61.8272 10.132 62.0613 10.538 62.475 10.8384C62.8886 11.1387 63.4438 11.2889 64.1405 11.2889C64.5869 11.2889 65.0223 11.25 65.4469 11.1721C65.8823 11.0831 66.2361 10.9774 66.5083 10.8551L66.8348 12.8741C66.7042 12.9408 66.53 13.0076 66.3123 13.0743C66.0946 13.1411 65.8496 13.1967 65.5775 13.2412C65.3162 13.2968 65.0332 13.3413 64.7284 13.3747C64.4236 13.4081 64.1188 13.4247 63.814 13.4247C63.041 13.4247 62.3661 13.3079 61.7891 13.0743C61.2231 12.8407 60.7495 12.5237 60.3685 12.1232C59.9984 11.7116 59.7208 11.2277 59.5357 10.6715C59.3615 10.1153 59.2745 9.51462 59.2745 8.86942ZM64.9896 7.91831C64.9788 7.70695 64.9407 7.50115 64.8754 7.30092C64.8209 7.10069 64.7284 6.9227 64.5978 6.76696C64.478 6.61123 64.3202 6.4833 64.1242 6.38318C63.9391 6.28306 63.7051 6.23301 63.4221 6.23301C63.1499 6.23301 62.9159 6.28306 62.7199 6.38318C62.524 6.47218 62.3607 6.59454 62.23 6.75028C62.0994 6.90602 61.996 7.08956 61.9198 7.30092C61.8545 7.50115 61.8055 7.70695 61.7728 7.91831H64.9896Z" fill="#006494"/>
</svg>