<svg xmlns="http://www.w3.org/2000/svg" width="59" height="20" viewBox="0 0 59 20" fill="none">
  <path d="M7.25708 5.88719H9.96557V17.5071H7.25708V12.5773H2.70849V17.5071H0V5.88719H2.70849V10.3308H7.25708V5.88719Z" fill="#2C62F0"/>
  <path d="M14.5056 6.13861C14.5056 6.59704 14.3521 6.95758 14.0456 7.22021C13.7386 7.48284 13.377 7.61416 12.9603 7.61416C12.5437 7.61416 12.1816 7.48284 11.8751 7.22021C11.5681 6.95758 11.4151 6.59704 11.4151 6.13861C11.4151 5.68018 11.5681 5.32012 11.8751 5.05701C12.1816 4.79438 12.5437 4.66306 12.9603 4.66306C13.377 4.66306 13.7386 4.79438 14.0456 5.05701C14.3521 5.31965 14.5056 5.68018 14.5056 6.13861ZM14.2624 17.5072H11.6758V8.68729H14.2624V17.5072Z" fill="#2C62F0"/>
  <path d="M14.2628 18.5066H0.000554358V20H14.2628V18.5066Z" fill="#2C62F0"/>
  <path d="M59 16.1686H22.7564V17.662H59V16.1686Z" fill="#2C62F0"/>
  <path d="M23.4296 1.40811V3.66448H19.7692V19.7626H17.0371V3.66448H13.3767V1.40811H23.4296Z" fill="#2C62F0"/>
  <path d="M27.2136 11.4006C27.4705 11.4006 27.7157 11.3949 27.9492 11.3836C28.1827 11.3723 28.3696 11.3554 28.5097 11.3327V9.41568C28.4046 9.39305 28.247 9.37044 28.0368 9.34781C27.8266 9.32519 27.634 9.31388 27.4588 9.31388C27.2136 9.31388 26.9801 9.33085 26.7583 9.36478C26.5481 9.3874 26.3613 9.4383 26.1979 9.51747C26.0344 9.59664 25.906 9.70408 25.8126 9.83981C25.7191 9.97553 25.6724 10.1452 25.6724 10.3488C25.6724 10.7446 25.8067 11.0217 26.0753 11.1801C26.3555 11.3271 26.7349 11.4006 27.2136 11.4006ZM27.0035 4.00378C27.7741 4.00378 28.4163 4.08861 28.93 4.25826C29.4437 4.42791 29.8524 4.67108 30.1559 4.98776C30.4712 5.30445 30.693 5.68899 30.8215 6.1414C30.9499 6.5938 31.0141 7.0971 31.0141 7.6513V12.9105C30.6405 12.9897 30.1209 13.0802 29.4554 13.1819C28.7899 13.295 27.9842 13.3516 27.0385 13.3516C26.443 13.3516 25.9001 13.3007 25.4097 13.1989C24.931 13.0971 24.5165 12.9331 24.1663 12.7069C23.816 12.4694 23.5474 12.164 23.3606 11.7908C23.1738 11.4176 23.0804 10.9595 23.0804 10.4166C23.0804 9.89636 23.1855 9.45526 23.3957 9.09334C23.6175 8.73141 23.9094 8.44301 24.2713 8.22811C24.6333 8.01322 25.0478 7.86053 25.5148 7.77005C25.9819 7.66826 26.4664 7.61737 26.9685 7.61737C27.3071 7.61737 27.6048 7.63433 27.8617 7.66826C28.1302 7.69088 28.3462 7.72481 28.5097 7.77005V7.53254C28.5097 7.10276 28.3754 6.7578 28.1068 6.49766C27.8383 6.23753 27.3713 6.10747 26.7058 6.10747C26.2621 6.10747 25.8242 6.1414 25.3922 6.20926C24.9602 6.26581 24.5866 6.35063 24.2713 6.46373L23.9386 4.42791C24.0904 4.38267 24.2772 4.33743 24.499 4.29219C24.7325 4.23564 24.9836 4.1904 25.2521 4.15647C25.5207 4.11123 25.8009 4.0773 26.0928 4.05468C26.3963 4.02075 26.6999 4.00378 27.0035 4.00378Z" fill="#2C62F0"/>
  <path d="M39.2759 8.63528C39.2759 7.00662 38.6571 6.19229 37.4195 6.19229C37.1509 6.19229 36.8824 6.22622 36.6138 6.29408C36.357 6.36194 36.1468 6.44677 35.9833 6.54856V11.1461C36.1118 11.1687 36.2752 11.1914 36.4737 11.214C36.6722 11.2253 36.8882 11.2309 37.1217 11.2309C37.834 11.2309 38.371 10.9934 38.733 10.5184C39.0949 10.0434 39.2759 9.41568 39.2759 8.63528ZM41.938 8.70314C41.938 9.41568 41.8271 10.0604 41.6052 10.6372C41.3951 11.214 41.0857 11.706 40.677 12.1131C40.2684 12.5203 39.7663 12.837 39.1708 13.0632C38.5754 13.2781 37.8982 13.3855 37.1392 13.3855C36.824 13.3855 36.4912 13.3686 36.141 13.3346C35.8024 13.312 35.4638 13.2781 35.1252 13.2328C34.7983 13.1876 34.483 13.1367 34.1794 13.0802C33.8759 13.0123 33.6073 12.9444 33.3738 12.8766V0.407164L35.9833 0V4.44488C36.2752 4.32047 36.5788 4.22433 36.8941 4.15647C37.2093 4.08861 37.5479 4.05468 37.9099 4.05468C38.5637 4.05468 39.1416 4.16778 39.6437 4.39398C40.1458 4.60887 40.5661 4.9199 40.9047 5.32707C41.2433 5.73423 41.5002 6.22622 41.6753 6.80304C41.8504 7.36854 41.938 8.00191 41.938 8.70314Z" fill="#2C62F0"/>
  <path d="M47.6215 13.3346C46.8625 13.3233 46.2437 13.2442 45.765 13.0971C45.298 12.9501 44.9244 12.7465 44.6441 12.4864C44.3756 12.2149 44.1888 11.8926 44.0837 11.5194C43.9903 11.1348 43.9436 10.705 43.9436 10.23V0.407164L46.5531 0V9.72105C46.5531 9.94725 46.5706 10.1508 46.6057 10.3318C46.6407 10.5128 46.7049 10.6654 46.7983 10.7899C46.9034 10.9143 47.0493 11.0161 47.2362 11.0952C47.423 11.1744 47.674 11.2253 47.9892 11.2479L47.6215 13.3346Z" fill="#2C62F0"/>
  <path d="M49.0472 8.771C49.0472 7.97929 49.1698 7.28937 49.415 6.70125C49.6718 6.10181 50.0046 5.60416 50.4133 5.20831C50.8219 4.81246 51.2889 4.51274 51.8143 4.30916C52.3514 4.10557 52.9002 4.00378 53.4606 4.00378C54.7683 4.00378 55.8016 4.39398 56.5606 5.17438C57.3195 5.94347 57.6989 7.08014 57.6989 8.58438C57.6989 8.73141 57.6931 8.89541 57.6814 9.07637C57.6698 9.24602 57.6581 9.39871 57.6464 9.53443H51.7268C51.7852 10.0547 52.0362 10.4675 52.4799 10.7729C52.9235 11.0783 53.519 11.2309 54.2663 11.2309C54.745 11.2309 55.212 11.1914 55.6674 11.1122C56.1344 11.0217 56.5138 10.9143 56.8057 10.7899L57.156 12.8426C57.0159 12.9105 56.8291 12.9784 56.5956 13.0462C56.3621 13.1141 56.0994 13.1706 55.8075 13.2159C55.5272 13.2724 55.2237 13.3177 54.8968 13.3516C54.5698 13.3855 54.2429 13.4025 53.916 13.4025C53.087 13.4025 52.3631 13.2837 51.7443 13.0462C51.1371 12.8087 50.6292 12.4864 50.2206 12.0792C49.8236 11.6607 49.5259 11.1687 49.3274 10.6032C49.1406 10.0377 49.0472 9.42699 49.0472 8.771ZM55.177 7.80398C55.1653 7.58909 55.1244 7.37985 55.0544 7.17627C54.996 6.97269 54.8968 6.79173 54.7566 6.63339C54.6282 6.47504 54.4589 6.34498 54.2487 6.24319C54.0503 6.1414 53.7992 6.0905 53.4957 6.0905C53.2038 6.0905 52.9527 6.1414 52.7426 6.24319C52.5324 6.33367 52.3573 6.45808 52.2172 6.61642C52.077 6.77476 51.9661 6.96138 51.8844 7.17627C51.8143 7.37985 51.7618 7.58909 51.7268 7.80398H55.177Z" fill="#2C62F0"/>
</svg>