<svg width="107" height="24" viewBox="0 0 107 24" fill="none" xmlns="http://www.w3.org/2000/svg">
<path d="M0.728 19V1.12H7.4C8.616 1.12 9.688 1.344 10.616 1.792C11.56 2.224 12.296 2.864 12.824 3.712C13.352 4.544 13.616 5.56 13.616 6.76C13.616 7.944 13.344 8.96 12.8 9.808C12.272 10.64 11.544 11.28 10.616 11.728C9.688 12.176 8.616 12.4 7.4 12.4H3.992V19H0.728ZM3.992 9.52H7.448C8.04 9.52 8.552 9.408 8.984 9.184C9.416 8.944 9.752 8.616 9.992 8.2C10.232 7.784 10.352 7.304 10.352 6.76C10.352 6.2 10.232 5.72 9.992 5.32C9.752 4.904 9.416 4.584 8.984 4.36C8.552 4.12 8.04 4 7.448 4H3.992V9.52ZM16.0265 19V5.944H18.9785V8.848L18.7385 8.416C19.0425 7.44 19.5145 6.76 20.1545 6.376C20.8105 5.992 21.5945 5.8 22.5065 5.8H23.2745V8.584H22.1465C21.2505 8.584 20.5305 8.864 19.9865 9.424C19.4425 9.968 19.1705 10.736 19.1705 11.728V19H16.0265ZM31.3871 19.288C30.1071 19.288 28.9391 18.992 27.8831 18.4C26.8431 17.808 26.0111 17 25.3871 15.976C24.7791 14.952 24.4751 13.784 24.4751 12.472C24.4751 11.16 24.7791 9.992 25.3871 8.968C26.0111 7.944 26.8431 7.136 27.8831 6.544C28.9231 5.952 30.0911 5.656 31.3871 5.656C32.6671 5.656 33.8271 5.952 34.8671 6.544C35.9071 7.136 36.7311 7.944 37.3391 8.968C37.9631 9.976 38.2751 11.144 38.2751 12.472C38.2751 13.784 37.9631 14.952 37.3391 15.976C36.7151 17 35.8831 17.808 34.8431 18.4C33.8031 18.992 32.6511 19.288 31.3871 19.288ZM31.3871 16.408C32.0911 16.408 32.7071 16.24 33.2351 15.904C33.7791 15.568 34.2031 15.104 34.5071 14.512C34.8271 13.904 34.9871 13.224 34.9871 12.472C34.9871 11.704 34.8271 11.032 34.5071 10.456C34.2031 9.864 33.7791 9.4 33.2351 9.064C32.7071 8.712 32.0911 8.536 31.3871 8.536C30.6671 8.536 30.0351 8.712 29.4911 9.064C28.9471 9.4 28.5151 9.864 28.1951 10.456C27.8911 11.032 27.7391 11.704 27.7391 12.472C27.7391 13.224 27.8911 13.904 28.1951 14.512C28.5151 15.104 28.9471 15.568 29.4911 15.904C30.0351 16.24 30.6671 16.408 31.3871 16.408ZM42.1473 19V15.64H45.3153V19H42.1473ZM49.9936 19V1.12H53.2576V8.92H60.8656V1.12H64.1536V19H60.8656V11.8H53.2576V19H49.9936ZM67.3312 19V5.944H70.4752V19H67.3312ZM67.3312 4.48V1.12H70.4752V4.48H67.3312ZM73.3781 23.8V5.944H76.3301V8.536L76.0421 7.888C76.4901 7.184 77.0981 6.64 77.8661 6.256C78.6341 5.856 79.5221 5.656 80.5301 5.656C81.7621 5.656 82.8741 5.96 83.8661 6.568C84.8581 7.176 85.6421 7.992 86.2181 9.016C86.8101 10.04 87.1061 11.192 87.1061 12.472C87.1061 13.736 86.8181 14.888 86.2421 15.928C85.6661 16.968 84.8821 17.792 83.8901 18.4C82.8981 18.992 81.7701 19.288 80.5061 19.288C79.5621 19.288 78.6901 19.104 77.8901 18.736C77.1061 18.352 76.4821 17.808 76.0181 17.104L76.5221 16.48V23.8H73.3781ZM80.1461 16.408C80.8661 16.408 81.5061 16.24 82.0661 15.904C82.6261 15.568 83.0581 15.104 83.3621 14.512C83.6821 13.92 83.8421 13.24 83.8421 12.472C83.8421 11.704 83.6821 11.032 83.3621 10.456C83.0581 9.864 82.6261 9.4 82.0661 9.064C81.5061 8.712 80.8661 8.536 80.1461 8.536C79.4581 8.536 78.8341 8.704 78.2741 9.04C77.7301 9.376 77.2981 9.848 76.9781 10.456C76.6741 11.048 76.5221 11.72 76.5221 12.472C76.5221 13.24 76.6741 13.92 76.9781 14.512C77.2981 15.104 77.7301 15.568 78.2741 15.904C78.8341 16.24 79.4581 16.408 80.1461 16.408ZM93.4631 19.288C92.5511 19.288 91.7591 19.136 91.0871 18.832C90.4151 18.528 89.8951 18.096 89.5271 17.536C89.1591 16.96 88.9751 16.296 88.9751 15.544C88.9751 14.824 89.1351 14.184 89.4551 13.624C89.7751 13.048 90.2711 12.568 90.9431 12.184C91.6151 11.8 92.4631 11.528 93.4871 11.368L97.7591 10.672V13.072L94.0871 13.696C93.4631 13.808 92.9991 14.008 92.6951 14.296C92.3911 14.584 92.2391 14.96 92.2391 15.424C92.2391 15.872 92.4071 16.232 92.7431 16.504C93.0951 16.76 93.5271 16.888 94.0391 16.888C94.6951 16.888 95.2711 16.752 95.7671 16.48C96.2791 16.192 96.6711 15.8 96.9431 15.304C97.2311 14.808 97.3751 14.264 97.3751 13.672V10.312C97.3751 9.752 97.1511 9.288 96.7031 8.92C96.2711 8.536 95.6951 8.344 94.9751 8.344C94.3031 8.344 93.7031 8.528 93.1751 8.896C92.6631 9.248 92.2871 9.72 92.0471 10.312L89.4791 9.064C89.7351 8.376 90.1351 7.784 90.6791 7.288C91.2391 6.776 91.8951 6.376 92.6471 6.088C93.3991 5.8 94.2151 5.656 95.0951 5.656C96.1671 5.656 97.1111 5.856 97.9271 6.256C98.7431 6.64 99.3751 7.184 99.8231 7.888C100.287 8.576 100.519 9.384 100.519 10.312V19H97.5431V16.768L98.2151 16.72C97.8791 17.28 97.4791 17.752 97.0151 18.136C96.5511 18.504 96.0231 18.792 95.4311 19C94.8391 19.192 94.1831 19.288 93.4631 19.288ZM103.425 19V0.831999H106.569V19H103.425Z" fill="url(#paint0_diamond_38_136)"/>
<defs>
<radialGradient id="paint0_diamond_38_136" cx="0" cy="0" r="1" gradientUnits="userSpaceOnUse" gradientTransform="translate(6 8.99999) rotate(1.20352) scale(119.026 436.43)">
<stop stop-color="#F2BA4C"/>
<stop offset="1" stop-color="#DC4238"/>
</radialGradient>
</defs>
</svg>
