<svg xmlns="http://www.w3.org/2000/svg" width="741" height="957" viewBox="0 0 741 957" fill="none">
  <path d="M168.741 252.146C153.942 243.342 147.401 239.653 147.122 239.501L144.204 237.86L135.421 253.508L138.328 255.151C138.328 255.151 145.052 258.947 159.58 267.585C169.829 273.682 178.255 282.451 183.927 292.948C200.405 323.404 189.537 361.819 159.701 378.585C144.829 386.938 127.633 388.932 111.288 384.182C94.9592 379.452 81.4964 368.607 73.3998 353.688L66.1739 339.394L66.3206 339.318L64.7344 336.378C61.1501 329.76 60.4722 322.161 62.8172 314.993C65.1511 307.828 70.1928 302.097 77.0002 298.865C89.3465 293.003 104.603 297.555 111.733 309.226C119.047 321.181 116.19 336.577 105.092 345.052C101.57 347.738 100.544 352.536 102.667 356.455C103.918 358.769 106.11 360.413 108.677 360.966C111.244 361.52 113.92 360.922 116.006 359.325C134.154 345.452 139.046 320.13 127.379 300.427C121.717 290.857 112.393 283.761 101.134 280.476C89.8731 277.181 78.2241 278.13 68.3062 283.139C58.9779 287.858 49.9554 297.364 45.171 307.346C43.6744 305.229 42.1042 303.06 40.4709 300.789L40.4308 300.728C32.2107 289.35 22.8843 276.466 18.8191 264.452C17.7278 261.224 15.1237 258.842 12.0228 258.253C10.0617 257.872 8.07581 258.153 6.2933 259.06C2.13855 261.164 -0.536827 266.655 0.460788 271.089L0.49659 271.223C3.80793 282.914 14.8165 298.474 27.5566 316.493C37.2774 330.226 48.286 345.786 57.5213 361.976L57.5964 362.123C68.0125 381.386 85.3262 395.351 106.347 401.45C120.556 405.567 135.544 405.739 149.685 401.95C155.8 400.312 161.765 397.938 167.38 394.882C167.765 394.671 168.138 394.464 168.523 394.254C187.017 383.856 200.439 366.619 206.333 345.707C212.193 324.887 209.851 303.115 199.737 284.404C192.514 271.052 181.804 259.899 168.774 252.137L168.741 252.146Z" fill="#F2634C" fill-opacity="0.1"/>
  <path d="M53.5029 276.321L55.5271 278.667L69.2995 268.004L67.0967 265.338C51.5209 246.486 39.7328 228.228 31.0833 209.532L30.8564 209.119C29.5652 207.121 27.5943 205.755 25.298 205.258C23.0017 204.76 20.6649 205.197 18.709 206.49C14.7597 209.111 13.6078 214.534 16.1213 218.62C27.597 241.614 39.8211 260.5 53.495 276.335L53.5029 276.321Z" fill="#F2634C" fill-opacity="0.1"/>
  <path d="M87.5867 257.709L89.7197 260.338L104.396 248.464L102.275 245.88C83.8791 223.403 70.9356 201.305 61.5502 176.354L61.3225 175.866C60.1237 173.787 58.1733 172.291 55.8295 171.677C53.4827 171.052 51.0269 171.376 48.9146 172.575C44.6899 174.973 43.0988 180.331 45.3358 184.568C54.4361 209.81 68.6549 234.408 87.5724 257.701L87.5867 257.709Z" fill="#F2634C" fill-opacity="0.1"/>
  <path d="M121.061 240.973L123.758 243.883L134.344 230.231L132.657 228.182C116.223 208.251 111.716 199.835 102.507 171.905C101.785 169.704 100.206 167.924 98.0719 166.888C95.8696 165.822 93.2834 165.694 90.9787 166.525C88.6962 167.351 86.8786 169.018 85.8603 171.208C84.8337 173.413 84.7482 175.866 85.5971 178.139C96.2833 206.531 101.17 219.491 121.079 240.992L121.061 240.973Z" fill="#F2634C" fill-opacity="0.1"/>
  <path d="M201.783 204.746C197.413 198.854 189.27 201.131 185.743 206.642C175.205 218.563 172.743 243.541 172.743 243.541L187.961 256.016C187.961 256.016 191.716 250.74 192.464 239.184C192.075 221.356 209.729 214.758 201.783 204.746Z" fill="#F2634C" fill-opacity="0.1"/>
  <path d="M297.085 731.135C282.287 722.331 275.746 718.641 275.467 718.489L272.549 716.849L263.766 732.496L266.673 734.14C266.673 734.14 273.397 737.935 287.925 746.573C298.173 752.67 306.6 761.439 312.272 771.937C328.75 802.392 317.881 840.808 288.046 857.574C273.173 865.927 255.978 867.921 239.632 863.171C223.304 858.441 209.841 847.596 201.744 832.676L194.519 818.382L194.665 818.307L193.079 815.367C189.495 808.749 188.817 801.15 191.162 793.982C193.496 786.817 198.537 781.086 205.345 777.854C217.691 771.992 232.947 776.544 240.078 788.214C247.392 800.169 244.535 815.566 233.437 824.041C229.915 826.727 228.889 831.525 231.011 835.443C232.263 837.757 234.455 839.402 237.022 839.955C239.589 840.508 242.265 839.911 244.351 838.313C262.498 824.441 267.39 799.119 255.724 779.415C250.062 769.846 240.737 762.749 229.479 759.465C218.218 756.169 206.569 757.119 196.651 762.127C187.323 766.846 178.3 776.353 173.516 786.335C172.019 784.218 170.449 782.049 168.816 779.777L168.775 779.716C160.555 768.338 151.229 755.454 147.164 743.44C146.072 740.212 143.468 737.831 140.367 737.242C138.406 736.86 136.42 737.142 134.638 738.049C130.483 740.153 127.808 745.643 128.805 750.078L128.841 750.211C132.153 761.903 143.161 777.462 155.901 795.482C165.622 809.215 176.631 824.774 185.866 840.964L185.941 841.111C196.357 860.374 213.671 874.34 234.691 880.439C248.901 884.555 263.889 884.728 278.03 880.939C284.145 879.301 290.109 876.927 295.725 873.87C296.109 873.66 296.483 873.453 296.867 873.242C315.362 862.845 328.783 845.608 334.678 824.696C340.538 803.876 338.195 782.104 328.082 763.392C320.858 750.041 310.149 738.888 297.119 731.126L297.085 731.135Z" fill="#F2634C" fill-opacity="0.1"/>
  <path d="M181.848 755.309L183.872 757.656L197.644 746.992L195.441 744.327C179.866 725.474 168.077 707.217 159.428 688.521L159.201 688.108C157.91 686.11 155.939 684.744 153.643 684.246C151.346 683.749 149.01 684.185 147.054 685.479C143.104 688.1 141.952 693.523 144.466 697.609C155.942 720.602 168.166 739.489 181.84 755.323L181.848 755.309Z" fill="#F2634C" fill-opacity="0.1"/>
  <path d="M215.931 736.697L218.064 739.326L232.741 727.452L230.62 724.868C212.224 702.392 199.28 680.293 189.895 655.343L189.667 654.854C188.468 652.775 186.518 651.28 184.174 650.666C181.827 650.041 179.371 650.365 177.259 651.563C173.035 653.961 171.443 659.319 173.68 663.556C182.781 688.798 197 713.397 215.917 736.689L215.931 736.697Z" fill="#F2634C" fill-opacity="0.1"/>
  <path d="M249.406 719.961L252.103 722.872L262.688 709.22L261.001 707.171C244.568 687.24 240.06 678.823 230.852 650.894C230.13 648.693 228.551 646.913 226.416 645.877C224.214 644.811 221.628 644.682 219.323 645.514C217.041 646.34 215.223 648.006 214.205 650.197C213.178 652.401 213.093 654.854 213.942 657.128C224.628 685.519 229.514 698.48 249.423 719.981L249.406 719.961Z" fill="#F2634C" fill-opacity="0.1"/>
  <path d="M330.128 683.735C325.757 677.842 317.615 680.119 314.088 685.631C303.55 697.551 301.087 722.529 301.087 722.529L316.306 735.004C316.306 735.004 320.061 729.729 320.809 718.172C320.42 700.344 338.074 693.747 330.128 683.735Z" fill="#F2634C" fill-opacity="0.1"/>
  <path d="M232.913 491.64C218.114 482.836 211.573 479.147 211.294 478.995L208.376 477.354L199.593 493.002L202.5 494.646C202.5 494.646 209.225 498.441 223.752 507.079C234.001 513.176 242.427 521.945 248.1 532.442C264.577 562.898 253.709 601.314 223.873 618.079C209.001 626.432 191.805 628.426 175.46 623.677C159.132 618.946 145.669 608.102 137.572 593.182L130.346 578.888L130.493 578.813L128.907 575.872C125.322 569.255 124.645 561.656 126.99 554.487C129.323 547.322 134.365 541.592 141.173 538.359C153.519 532.497 168.775 537.05 175.905 548.72C183.22 560.675 180.363 576.071 169.265 584.547C165.743 587.233 164.717 592.031 166.839 595.949C168.09 598.263 170.283 599.907 172.85 600.461C175.417 601.014 178.092 600.416 180.178 598.819C198.326 584.946 203.218 559.625 191.552 539.921C185.89 530.351 176.565 523.255 165.307 519.971C154.045 516.675 142.396 517.625 132.478 522.633C123.15 527.352 114.128 536.859 109.343 546.84C107.847 544.723 106.277 542.554 104.643 540.283L104.603 540.222C96.3831 528.844 87.0566 515.96 82.9914 503.946C81.9001 500.718 79.296 498.337 76.1951 497.747C74.234 497.366 72.2481 497.647 70.4656 498.555C66.3109 500.659 63.6355 506.149 64.6331 510.584L64.6689 510.717C67.9802 522.408 78.9888 537.968 91.7289 555.988C101.45 569.72 112.458 585.28 121.694 601.47L121.769 601.617C132.185 620.88 149.498 634.846 170.519 640.944C184.729 645.061 199.717 645.234 213.858 641.445C219.972 639.806 225.937 637.432 231.553 634.376C231.937 634.166 232.31 633.958 232.695 633.748C251.19 623.35 264.611 606.114 270.506 585.201C276.366 564.382 274.023 542.609 263.91 523.898C256.686 510.546 245.976 499.394 232.946 491.631L232.913 491.64Z" fill="#F2634C" fill-opacity="0.1"/>
  <path d="M117.675 515.815L119.699 518.161L133.472 507.498L131.269 504.833C115.693 485.98 103.905 467.722 95.2556 449.026L95.0287 448.614C93.7375 446.616 91.7666 445.25 89.4703 444.752C87.174 444.254 84.8372 444.691 82.8813 445.985C78.932 448.606 77.7801 454.029 80.2936 458.114C91.7693 481.108 103.993 499.995 117.667 515.829L117.675 515.815Z" fill="#F2634C" fill-opacity="0.1"/>
  <path d="M151.759 497.203L153.892 499.832L168.569 487.958L166.448 485.374C148.051 462.897 135.108 440.799 125.722 415.848L125.495 415.36C124.296 413.281 122.346 411.785 120.002 411.172C117.655 410.547 115.199 410.87 113.087 412.069C108.862 414.467 107.271 419.825 109.508 424.062C118.608 449.304 132.827 473.903 151.745 497.195L151.759 497.203Z" fill="#F2634C" fill-opacity="0.1"/>
  <path d="M185.234 480.467L187.93 483.377L198.516 469.726L196.829 467.676C180.395 447.745 175.888 439.329 166.679 411.4C165.958 409.199 164.379 407.418 162.244 406.382C160.042 405.317 157.456 405.188 155.151 406.02C152.869 406.846 151.051 408.512 150.033 410.703C149.006 412.907 148.921 415.36 149.769 417.634C160.456 446.025 165.342 458.985 185.251 480.486L185.234 480.467Z" fill="#F2634C" fill-opacity="0.1"/>
  <path d="M265.955 444.241C261.585 438.348 253.442 440.625 249.916 446.136C239.377 458.057 236.915 483.035 236.915 483.035L252.133 495.51C252.133 495.51 255.889 490.235 256.636 478.678C256.247 460.85 273.902 454.253 265.955 444.241Z" fill="#F2634C" fill-opacity="0.1"/>
  <path d="M579.259 142.148C564.461 133.344 557.92 129.655 557.641 129.503L554.723 127.862L545.94 143.51L548.846 145.153C548.846 145.153 555.571 148.949 570.099 157.587C580.347 163.683 588.773 172.453 594.446 182.95C610.923 213.406 600.055 251.821 570.22 268.587C555.347 276.94 538.152 278.934 521.806 274.184C505.478 269.454 492.015 258.609 483.918 243.689L476.692 229.395L476.839 229.32L475.253 226.38C471.669 219.762 470.991 212.163 473.336 204.995C475.67 197.83 480.711 192.099 487.519 188.867C499.865 183.005 515.121 187.557 522.252 199.227C529.566 211.183 526.709 226.579 515.611 235.054C512.089 237.74 511.063 242.538 513.185 246.457C514.437 248.771 516.629 250.415 519.196 250.968C521.763 251.521 524.438 250.924 526.525 249.327C544.672 235.454 549.564 210.132 537.898 190.428C532.236 180.859 522.911 173.763 511.653 170.478C500.392 167.183 488.743 168.132 478.825 173.141C469.496 177.86 460.474 187.366 455.689 197.348C454.193 195.231 452.623 193.062 450.989 190.791L450.949 190.73C442.729 179.352 433.403 166.468 429.338 154.454C428.246 151.225 425.642 148.844 422.541 148.255C420.58 147.874 418.594 148.155 416.812 149.062C412.657 151.166 409.982 156.656 410.979 161.091L411.015 161.225C414.326 172.916 425.335 188.476 438.075 206.495C447.796 220.228 458.804 235.788 468.04 251.978L468.115 252.125C478.531 271.388 495.845 285.353 516.865 291.452C531.075 295.568 546.063 295.741 560.204 291.952C566.318 290.314 572.283 287.94 577.899 284.884C578.283 284.673 578.657 284.466 579.041 284.255C597.536 273.858 610.957 256.621 616.852 235.709C622.712 214.889 620.369 193.117 610.256 174.406C603.032 161.054 592.323 149.901 579.293 142.139L579.259 142.148Z" fill="#F2634C" fill-opacity="0.1"/>
  <path d="M464.021 166.323L466.046 168.669L479.818 158.006L477.615 155.34C462.039 136.487 450.251 118.23 441.602 99.534L441.375 99.1213C440.084 97.1232 438.113 95.7571 435.816 95.2596C433.52 94.7621 431.183 95.1988 429.227 96.4924C425.278 99.1133 424.126 104.536 426.64 108.622C438.115 131.616 450.34 150.502 464.014 166.336L464.021 166.323Z" fill="#F2634C" fill-opacity="0.1"/>
  <path d="M498.105 147.711L500.238 150.339L514.915 138.466L512.794 135.882C494.398 113.405 481.454 91.3065 472.069 66.3559L471.841 65.8676C470.642 63.7886 468.692 62.2931 466.348 61.6792C464.001 61.0542 461.545 61.3778 459.433 62.5767C455.208 64.9745 453.617 70.3327 455.854 74.5696C464.955 99.8115 479.173 124.41 498.091 147.703L498.105 147.711Z" fill="#F2634C" fill-opacity="0.1"/>
  <path d="M531.58 130.975L534.276 133.885L544.862 120.233L543.175 118.184C526.742 98.2531 522.234 89.8367 513.025 61.9071C512.304 59.7063 510.725 57.9259 508.59 56.8899C506.388 55.8243 503.802 55.6954 501.497 56.5274C499.215 57.3533 497.397 59.0196 496.379 61.2101C495.352 63.4148 495.267 65.8675 496.116 68.1414C506.802 96.5327 511.688 109.493 531.597 130.994L531.58 130.975Z" fill="#F2634C" fill-opacity="0.1"/>
  <path d="M612.302 94.7482C607.931 88.8557 599.788 91.1327 596.262 96.644C585.723 108.565 583.261 133.542 583.261 133.542L598.479 146.018C598.479 146.018 602.235 140.742 602.982 129.186C602.594 111.358 620.248 104.76 612.302 94.7482Z" fill="#F2634C" fill-opacity="0.1"/>
  <path d="M707.604 621.136C692.805 612.332 686.264 608.643 685.985 608.491L683.067 606.851L674.284 622.498L677.191 624.142C677.191 624.142 683.915 627.937 698.443 636.575C708.692 642.672 717.118 651.441 722.791 661.939C739.268 692.394 728.4 730.81 698.564 747.576C683.692 755.929 666.496 757.922 650.151 753.173C633.822 748.443 620.359 737.598 612.263 722.678L605.037 708.384L605.184 708.309L603.597 705.369C600.013 698.751 599.335 691.152 601.68 683.984C604.014 676.819 609.056 671.088 615.863 667.856C628.21 661.994 643.466 666.546 650.596 678.216C657.91 690.171 655.053 705.568 643.955 714.043C640.433 716.729 639.407 721.527 641.53 725.445C642.781 727.759 644.973 729.404 647.54 729.957C650.107 730.51 652.783 729.912 654.869 728.315C673.017 714.443 677.909 689.121 666.243 669.417C660.58 659.848 651.256 652.751 639.997 649.467C628.736 646.171 617.087 647.121 607.169 652.129C597.841 656.848 588.818 666.355 584.034 676.336C582.537 674.219 580.967 672.051 579.334 669.779L579.294 669.718C571.074 658.34 561.747 645.456 557.682 633.442C556.591 630.214 553.987 627.833 550.886 627.244C548.925 626.862 546.939 627.144 545.156 628.051C541.002 630.155 538.326 635.645 539.324 640.08L539.36 640.213C542.671 651.904 553.68 667.464 566.42 685.484C576.141 699.217 587.149 714.776 596.384 730.966L596.459 731.113C606.876 750.376 624.189 764.342 645.21 770.44C659.419 774.557 674.408 774.73 688.549 770.941C694.663 769.302 700.628 766.928 706.243 763.872C706.628 763.662 707.001 763.455 707.386 763.244C725.88 752.847 739.302 735.61 745.196 714.698C751.057 693.878 748.714 672.106 738.6 653.394C731.377 640.042 720.667 628.89 707.637 621.128L707.604 621.136Z" fill="#F2634C" fill-opacity="0.1"/>
  <path d="M592.366 645.311L594.39 647.657L608.163 636.994L605.96 634.329C590.384 615.476 578.596 597.219 569.946 578.523L569.719 578.11C568.428 576.112 566.457 574.746 564.161 574.248C561.865 573.751 559.528 574.187 557.572 575.481C553.623 578.102 552.471 583.525 554.984 587.61C566.46 610.604 578.684 629.491 592.358 645.325L592.366 645.311Z" fill="#F2634C" fill-opacity="0.1"/>
  <path d="M626.45 626.699L628.583 629.328L643.26 617.454L641.138 614.87C622.742 592.394 609.799 570.295 600.413 545.345L600.186 544.856C598.987 542.777 597.036 541.282 594.693 540.668C592.346 540.043 589.89 540.366 587.778 541.565C583.553 543.963 581.962 549.321 584.199 553.558C593.299 578.8 607.518 603.399 626.435 626.691L626.45 626.699Z" fill="#F2634C" fill-opacity="0.1"/>
  <path d="M659.924 609.963L662.621 612.874L673.207 599.222L671.52 597.173C655.086 577.242 650.579 568.825 641.37 540.896C640.649 538.695 639.069 536.915 636.935 535.878C634.733 534.813 632.146 534.684 629.842 535.516C627.559 536.342 625.742 538.008 624.723 540.199C623.697 542.403 623.611 544.856 624.46 547.13C635.146 575.521 640.033 588.481 659.942 609.982L659.924 609.963Z" fill="#F2634C" fill-opacity="0.1"/>
  <path d="M740.646 573.737C736.276 567.844 728.133 570.121 724.606 575.633C714.068 587.553 711.606 612.531 711.606 612.531L726.824 625.006C726.824 625.006 730.579 619.731 731.327 608.174C730.938 590.346 748.592 583.749 740.646 573.737Z" fill="#F2634C" fill-opacity="0.1"/>
  <path d="M643.432 381.642C628.633 372.838 622.092 369.149 621.813 368.997L618.895 367.356L610.112 383.004L613.019 384.648C613.019 384.648 619.743 388.443 634.271 397.081C644.519 403.178 652.946 411.947 658.618 422.444C675.096 452.9 664.228 491.316 634.392 508.081C619.52 516.434 602.324 518.428 585.978 513.679C569.65 508.948 556.187 498.104 548.091 483.184L540.865 468.89L541.011 468.815L539.425 465.874C535.841 459.257 535.163 451.658 537.508 444.489C539.842 437.324 544.884 431.594 551.691 428.361C564.037 422.499 579.293 427.052 586.424 438.722C593.738 450.677 590.881 466.073 579.783 474.549C576.261 477.235 575.235 482.033 577.357 485.951C578.609 488.265 580.801 489.909 583.368 490.462C585.935 491.016 588.611 490.418 590.697 488.821C608.844 474.948 613.736 449.626 602.07 429.923C596.408 420.353 587.083 413.257 575.825 409.973C564.564 406.677 552.915 407.626 542.997 412.635C533.669 417.354 524.646 426.86 519.862 436.842C518.365 434.725 516.795 432.556 515.162 430.285L515.122 430.224C506.902 418.846 497.575 405.962 493.51 393.948C492.419 390.72 489.814 388.339 486.714 387.749C484.753 387.368 482.767 387.649 480.984 388.557C476.829 390.66 474.154 396.151 475.152 400.585L475.187 400.719C478.499 412.41 489.507 427.97 502.247 445.989C511.968 459.722 522.977 475.282 532.212 491.472L532.287 491.619C542.703 510.882 560.017 524.848 581.037 530.946C595.247 535.063 610.235 535.236 624.376 531.446C630.491 529.808 636.456 527.434 642.071 524.378C642.456 524.168 642.829 523.96 643.213 523.75C661.708 513.352 675.129 496.116 681.024 475.203C686.884 454.384 684.542 432.611 674.428 413.9C667.204 400.548 656.495 389.395 643.465 381.633L643.432 381.642Z" fill="#F2634C" fill-opacity="0.1"/>
  <path d="M528.194 405.817L530.218 408.163L543.99 397.5L541.788 394.834C526.212 375.982 514.424 357.724 505.774 339.028L505.547 338.616C504.256 336.618 502.285 335.251 499.989 334.754C497.692 334.256 495.356 334.693 493.4 335.987C489.45 338.608 488.299 344.031 490.812 348.116C502.288 371.11 514.512 389.996 528.186 405.831L528.194 405.817Z" fill="#F2634C" fill-opacity="0.1"/>
  <path d="M562.277 387.205L564.41 389.834L579.087 377.96L576.966 375.376C558.57 352.899 545.626 330.801 536.241 305.85L536.013 305.362C534.814 303.283 532.864 301.787 530.52 301.174C528.173 300.548 525.718 300.872 523.605 302.071C519.381 304.469 517.79 309.827 520.027 314.064C529.127 339.306 543.346 363.905 562.263 387.197L562.277 387.205Z" fill="#F2634C" fill-opacity="0.1"/>
  <path d="M595.752 370.469L598.449 373.379L609.035 359.728L607.347 357.678C590.914 337.747 586.406 329.331 577.198 301.401C576.476 299.201 574.897 297.42 572.763 296.384C570.56 295.319 567.974 295.19 565.669 296.022C563.387 296.848 561.569 298.514 560.551 300.704C559.525 302.909 559.439 305.362 560.288 307.636C570.974 336.027 575.86 348.987 595.769 370.488L595.752 370.469Z" fill="#F2634C" fill-opacity="0.1"/>
  <path d="M676.474 334.243C672.103 328.35 663.961 330.627 660.434 336.138C649.896 348.059 647.433 373.037 647.433 373.037L662.652 385.512C662.652 385.512 666.407 380.237 667.155 368.68C666.766 350.852 684.42 344.255 676.474 334.243Z" fill="#F2634C" fill-opacity="0.1"/>
  <path d="M374 197.147C359.201 188.343 352.66 184.654 352.381 184.502L349.463 182.861L340.68 198.509L343.587 200.152C343.587 200.152 350.312 203.948 364.839 212.586C375.088 218.683 383.514 227.452 389.187 237.949C405.664 268.405 394.796 306.82 364.96 323.586C350.088 331.939 332.892 333.933 316.547 329.183C300.218 324.453 286.756 313.608 278.659 298.688L271.433 284.395L271.58 284.319L269.994 281.379C266.409 274.761 265.731 267.162 268.076 259.994C270.41 252.829 275.452 247.098 282.259 243.866C294.606 238.004 309.862 242.556 316.992 254.226C324.306 266.182 321.45 281.578 310.352 290.053C306.829 292.739 305.803 297.537 307.926 301.456C309.177 303.77 311.369 305.414 313.936 305.967C316.504 306.52 319.179 305.923 321.265 304.326C339.413 290.453 344.305 265.131 332.639 245.428C326.977 235.858 317.652 228.762 306.394 225.477C295.132 222.182 283.483 223.131 273.565 228.14C264.237 232.859 255.215 242.365 250.43 252.347C248.934 250.23 247.363 248.061 245.73 245.79L245.69 245.729C237.47 234.351 228.144 221.467 224.078 209.453C222.987 206.225 220.383 203.843 217.282 203.254C215.321 202.873 213.335 203.154 211.553 204.061C207.398 206.165 204.722 211.656 205.72 216.09L205.756 216.224C209.067 227.915 220.076 243.475 232.816 261.494C242.537 275.227 253.545 290.787 262.781 306.977L262.856 307.124C273.272 326.387 290.585 340.352 311.606 346.451C325.816 350.568 340.804 350.74 354.945 346.951C361.059 345.313 367.024 342.939 372.639 339.883C373.024 339.672 373.397 339.465 373.782 339.255C392.277 328.857 405.698 311.62 411.593 290.708C417.453 269.888 415.11 248.116 404.997 229.405C397.773 216.053 387.063 204.9 374.033 197.138L374 197.147Z" fill="#F2634C" fill-opacity="0.1"/>
  <path d="M258.762 221.322L260.786 223.668L274.559 213.005L272.356 210.339C256.78 191.487 244.992 173.229 236.343 154.533L236.116 154.12C234.824 152.122 232.854 150.756 230.557 150.259C228.261 149.761 225.924 150.198 223.968 151.491C220.019 154.112 218.867 159.535 221.381 163.621C232.856 186.615 245.08 205.501 258.754 221.336L258.762 221.322Z" fill="#F2634C" fill-opacity="0.1"/>
  <path d="M292.846 202.71L294.979 205.338L309.656 193.465L307.535 190.881C289.138 168.404 276.195 146.306 266.809 121.355L266.582 120.867C265.383 118.788 263.433 117.292 261.089 116.678C258.742 116.053 256.286 116.377 254.174 117.576C249.949 119.974 248.358 125.332 250.595 129.569C259.695 154.811 273.914 179.409 292.832 202.702L292.846 202.71Z" fill="#F2634C" fill-opacity="0.1"/>
  <path d="M326.321 185.974L329.017 188.884L339.603 175.232L337.916 173.183C321.482 153.252 316.975 144.836 307.766 116.906C307.045 114.705 305.466 112.925 303.331 111.889C301.129 110.823 298.543 110.694 296.238 111.526C293.955 112.352 292.138 114.019 291.119 116.209C290.093 118.414 290.007 120.867 290.856 123.14C301.542 151.532 306.429 164.492 326.338 185.993L326.321 185.974Z" fill="#F2634C" fill-opacity="0.1"/>
  <path d="M407.042 149.747C402.672 143.855 394.529 146.132 391.003 151.643C380.464 163.564 378.002 188.542 378.002 188.542L393.22 201.017C393.22 201.017 396.976 195.741 397.723 184.185C397.334 166.357 414.989 159.759 407.042 149.747Z" fill="#F2634C" fill-opacity="0.1"/>
  <path d="M502.345 676.135C487.546 667.331 481.005 663.642 480.726 663.49L477.808 661.85L469.025 677.497L471.932 679.141C471.932 679.141 478.656 682.936 493.184 691.574C503.432 697.671 511.859 706.44 517.531 716.938C534.009 747.393 523.141 785.809 493.305 802.575C478.433 810.928 461.237 812.922 444.892 808.172C428.563 803.442 415.1 792.597 407.004 777.677L399.778 763.383L399.924 763.308L398.338 760.368C394.754 753.75 394.076 746.151 396.421 738.983C398.755 731.818 403.797 726.087 410.604 722.855C422.95 716.993 438.206 721.545 445.337 733.215C452.651 745.17 449.794 760.567 438.696 769.042C435.174 771.728 434.148 776.526 436.27 780.444C437.522 782.758 439.714 784.403 442.281 784.956C444.848 785.509 447.524 784.911 449.61 783.314C467.757 769.442 472.65 744.12 460.983 724.416C455.321 714.847 445.997 707.75 434.738 704.466C423.477 701.17 411.828 702.12 401.91 707.128C392.582 711.847 383.559 721.354 378.775 731.336C377.278 729.219 375.708 727.05 374.075 724.778L374.035 724.717C365.815 713.339 356.488 700.455 352.423 688.441C351.332 685.213 348.728 682.832 345.627 682.243C343.666 681.861 341.68 682.143 339.897 683.05C335.742 685.154 333.067 690.644 334.065 695.079L334.1 695.212C337.412 706.904 348.42 722.463 361.16 740.483C370.881 754.216 381.89 769.775 391.125 785.965L391.2 786.112C401.616 805.375 418.93 819.341 439.95 825.44C454.16 829.556 469.148 829.729 483.289 825.94C489.404 824.301 495.369 821.927 500.984 818.871C501.369 818.661 501.742 818.454 502.126 818.243C520.621 807.846 534.042 790.609 539.937 769.697C545.797 748.877 543.455 727.105 533.341 708.393C526.117 695.042 515.408 683.889 502.378 676.127L502.345 676.135Z" fill="#F2634C" fill-opacity="0.1"/>
  <path d="M387.107 700.31L389.131 702.656L402.903 691.993L400.701 689.328C385.125 670.475 373.337 652.218 364.687 633.522L364.46 633.109C363.169 631.111 361.198 629.745 358.902 629.247C356.605 628.75 354.269 629.186 352.313 630.48C348.364 633.101 347.212 638.524 349.725 642.61C361.201 665.603 373.425 684.49 387.099 700.324L387.107 700.31Z" fill="#F2634C" fill-opacity="0.1"/>
  <path d="M421.191 681.698L423.324 684.327L438 672.453L435.879 669.869C417.483 647.393 404.539 625.294 395.154 600.344L394.926 599.855C393.728 597.776 391.777 596.281 389.433 595.667C387.087 595.042 384.631 595.365 382.518 596.564C378.294 598.962 376.703 604.32 378.94 608.557C388.04 633.799 402.259 658.398 421.176 681.69L421.191 681.698Z" fill="#F2634C" fill-opacity="0.1"/>
  <path d="M454.665 664.962L457.362 667.873L467.948 654.221L466.26 652.172C449.827 632.241 445.32 623.824 436.111 595.895C435.389 593.694 433.81 591.914 431.676 590.878C429.473 589.812 426.887 589.683 424.583 590.515C422.3 591.341 420.482 593.007 419.464 595.198C418.438 597.402 418.352 599.855 419.201 602.129C429.887 630.52 434.773 643.481 454.682 664.982L454.665 664.962Z" fill="#F2634C" fill-opacity="0.1"/>
  <path d="M535.387 628.736C531.017 622.843 522.874 625.12 519.347 630.632C508.809 642.552 506.347 667.53 506.347 667.53L521.565 680.005C521.565 680.005 525.32 674.73 526.068 663.173C525.679 645.345 543.333 638.748 535.387 628.736Z" fill="#F2634C" fill-opacity="0.1"/>
  <path d="M438.172 436.641C423.374 427.837 416.833 424.148 416.554 423.996L413.636 422.355L404.853 438.003L407.76 439.647C407.76 439.647 414.484 443.442 429.012 452.08C439.26 458.177 447.687 466.946 453.359 477.443C469.836 507.899 458.968 546.315 429.133 563.08C414.26 571.433 397.065 573.427 380.719 568.678C364.391 563.947 350.928 553.103 342.831 538.183L335.605 523.889L335.752 523.814L334.166 520.873C330.582 514.256 329.904 506.657 332.249 499.488C334.583 492.323 339.624 486.593 346.432 483.36C358.778 477.498 374.034 482.051 381.165 493.721C388.479 505.676 385.622 521.072 374.524 529.548C371.002 532.234 369.976 537.032 372.098 540.95C373.35 543.264 375.542 544.908 378.109 545.462C380.676 546.015 383.352 545.417 385.438 543.82C403.585 529.947 408.477 504.625 396.811 484.922C391.149 475.352 381.824 468.256 370.566 464.972C359.305 461.676 347.656 462.625 337.738 467.634C328.409 472.353 319.387 481.859 314.603 491.841C313.106 489.724 311.536 487.555 309.902 485.284L309.862 485.223C301.642 473.845 292.316 460.961 288.251 448.947C287.159 445.719 284.555 443.338 281.454 442.748C279.493 442.367 277.507 442.648 275.725 443.556C271.57 445.659 268.895 451.15 269.892 455.585L269.928 455.718C273.239 467.409 284.248 482.969 296.988 500.988C306.709 514.721 317.718 530.281 326.953 546.471L327.028 546.618C337.444 565.881 354.758 579.847 375.778 585.945C389.988 590.062 404.976 590.235 419.117 586.446C425.231 584.807 431.196 582.433 436.812 579.377C437.196 579.167 437.57 578.959 437.954 578.749C456.449 568.351 469.87 551.115 475.765 530.202C481.625 509.383 479.282 487.61 469.169 468.899C461.945 455.547 451.236 444.395 438.206 436.632L438.172 436.641Z" fill="#F2634C" fill-opacity="0.1"/>
  <path d="M322.934 460.816L324.959 463.162L338.731 452.499L336.528 449.833C320.952 430.981 309.164 412.723 300.515 394.027L300.288 393.615C298.997 391.617 297.026 390.25 294.73 389.753C292.433 389.255 290.096 389.692 288.141 390.986C284.191 393.607 283.039 399.03 285.553 403.115C297.029 426.109 309.253 444.996 322.927 460.83L322.934 460.816Z" fill="#F2634C" fill-opacity="0.1"/>
  <path d="M357.018 442.204L359.151 444.833L373.828 432.959L371.707 430.375C353.311 407.898 340.367 385.8 330.982 360.849L330.754 360.361C329.555 358.282 327.605 356.786 325.261 356.173C322.914 355.548 320.458 355.871 318.346 357.07C314.121 359.468 312.53 364.826 314.767 369.063C323.868 394.305 338.086 418.904 357.004 442.196L357.018 442.204Z" fill="#F2634C" fill-opacity="0.1"/>
  <path d="M390.493 425.468L393.19 428.378L403.775 414.727L402.088 412.677C385.655 392.746 381.147 384.33 371.939 356.401C371.217 354.2 369.638 352.419 367.503 351.383C365.301 350.318 362.715 350.189 360.41 351.021C358.128 351.847 356.31 353.513 355.292 355.703C354.265 357.908 354.18 360.361 355.029 362.635C365.715 391.026 370.601 403.986 390.51 425.487L390.493 425.468Z" fill="#F2634C" fill-opacity="0.1"/>
  <path d="M471.215 389.242C466.844 383.349 458.701 385.626 455.175 391.137C444.637 403.058 442.174 428.036 442.174 428.036L457.392 440.511C457.392 440.511 461.148 435.236 461.895 423.679C461.507 405.851 479.161 399.254 471.215 389.242Z" fill="#F2634C" fill-opacity="0.1"/>
  <path d="M784.518 87.1488C769.72 78.3448 763.179 74.6556 762.9 74.5036L759.982 72.8629L751.199 88.5107L754.106 90.1544C754.106 90.1544 760.83 93.9496 775.358 102.587C785.606 108.684 794.033 117.453 799.705 127.951C816.183 158.407 805.314 196.822 775.479 213.588C760.607 221.941 743.411 223.935 727.065 219.185C710.737 214.455 697.274 203.61 689.177 188.69L681.952 174.396L682.098 174.321L680.512 171.381C676.928 164.763 676.25 157.164 678.595 149.996C680.929 142.831 685.971 137.1 692.778 133.868C705.124 128.006 720.38 132.558 727.511 144.228C734.825 156.183 731.968 171.58 720.87 180.055C717.348 182.741 716.322 187.539 718.444 191.458C719.696 193.772 721.888 195.416 724.455 195.969C727.022 196.522 729.698 195.925 731.784 194.328C749.931 180.455 754.823 155.133 743.157 135.429C737.495 125.86 728.17 118.764 716.912 115.479C705.651 112.184 694.002 113.133 684.084 118.142C674.756 122.861 665.733 132.367 660.949 142.349C659.452 140.232 657.882 138.063 656.249 135.792L656.208 135.731C647.988 124.352 638.662 111.469 634.597 99.4545C633.505 96.2264 630.901 93.8453 627.8 93.256C625.839 92.8745 623.854 93.156 622.071 94.0633C617.916 96.167 615.241 101.657 616.238 106.092L616.274 106.226C619.586 117.917 630.594 133.477 643.334 151.496C653.055 165.229 664.064 180.789 673.299 196.979L673.374 197.126C683.79 216.388 701.104 230.354 722.124 236.453C736.334 240.569 751.322 240.742 765.463 236.953C771.578 235.315 777.543 232.941 783.158 229.885C783.542 229.674 783.916 229.467 784.3 229.256C802.795 218.859 816.216 201.622 822.111 180.71C827.971 159.89 825.629 138.118 815.515 119.407C808.291 106.055 797.582 94.9021 784.552 87.1398L784.518 87.1488Z" fill="#F2634C" fill-opacity="0.1"/>
  <path d="M669.281 111.323L671.305 113.67L685.077 103.006L682.874 100.341C667.299 81.4884 655.51 63.231 646.861 44.535L646.634 44.1222C645.343 42.1242 643.372 40.7581 641.076 40.2605C638.779 39.763 636.443 40.1997 634.487 41.4933C630.537 44.1143 629.385 49.5372 631.899 53.6228C643.375 76.6166 655.599 95.5031 669.273 111.337L669.281 111.323Z" fill="#F2634C" fill-opacity="0.1"/>
  <path d="M703.364 92.7116L705.497 95.3404L720.174 83.4667L718.053 80.8825C699.657 58.406 686.713 36.3075 677.328 11.3569L677.1 10.8686C675.901 8.78953 673.951 7.29405 671.607 6.68015C669.26 6.05512 666.805 6.37879 664.692 7.57768C660.468 9.97547 658.876 15.3336 661.114 19.5705C670.214 44.8125 684.433 69.4114 703.35 92.7035L703.364 92.7116Z" fill="#F2634C" fill-opacity="0.1"/>
  <path d="M736.839 75.9755L739.536 78.8859L750.121 65.2342L748.434 63.1849C732.001 43.254 727.493 34.8376 718.285 6.90809C717.563 4.70729 715.984 2.92688 713.85 1.89082C711.647 0.825268 709.061 0.696369 706.756 1.52833C704.474 2.3543 702.656 4.02054 701.638 6.21107C700.611 8.41572 700.526 10.8685 701.375 13.1424C712.061 41.5336 716.947 54.4938 736.856 75.9948L736.839 75.9755Z" fill="#F2634C" fill-opacity="0.1"/>
  <path d="M817.561 39.7492C813.19 33.8567 805.048 36.1336 801.521 41.6449C790.983 53.5656 788.52 78.5435 788.52 78.5435L803.739 91.0187C803.739 91.0187 807.494 85.7434 808.242 74.1867C807.853 56.3585 825.507 49.7612 817.561 39.7492Z" fill="#F2634C" fill-opacity="0.1"/>
  <path d="M912.863 566.137C898.065 557.333 891.523 553.644 891.244 553.492L888.326 551.852L879.543 567.499L882.45 569.143C882.45 569.143 889.175 572.938 903.702 581.576C913.951 587.673 922.377 596.442 928.05 606.94C944.527 637.395 933.659 675.811 903.823 692.577C888.951 700.929 871.755 702.923 855.41 698.174C839.082 693.443 825.619 682.599 817.522 667.679L810.296 653.385L810.443 653.31L808.857 650.37C805.272 643.752 804.595 636.153 806.94 628.985C809.273 621.819 814.315 616.089 821.122 612.857C833.469 606.995 848.725 611.547 855.855 623.217C863.17 635.172 860.313 650.569 849.215 659.044C845.693 661.73 844.667 666.528 846.789 670.446C848.04 672.76 850.233 674.404 852.8 674.958C855.367 675.511 858.042 674.913 860.128 673.316C878.276 659.443 883.168 634.122 871.502 614.418C865.84 604.849 856.515 597.752 845.257 594.468C833.995 591.172 822.346 592.122 812.428 597.13C803.1 601.849 794.078 611.356 789.293 621.337C787.797 619.22 786.227 617.052 784.593 614.78L784.553 614.719C776.333 603.341 767.007 590.457 762.941 578.443C761.85 575.215 759.246 572.834 756.145 572.245C754.184 571.863 752.198 572.145 750.416 573.052C746.261 575.156 743.586 580.646 744.583 585.081L744.619 585.214C747.93 596.905 758.939 612.465 771.679 630.485C781.4 644.218 792.408 659.777 801.644 675.967L801.719 676.114C812.135 695.377 829.448 709.343 850.469 715.441C864.679 719.558 879.667 719.731 893.808 715.942C899.922 714.303 905.887 711.929 911.503 708.873C911.887 708.663 912.26 708.456 912.645 708.245C931.14 697.848 944.561 680.611 950.456 659.698C956.316 638.879 953.973 617.107 943.86 598.395C936.636 585.043 925.927 573.891 912.896 566.128L912.863 566.137Z" fill="#F2634C" fill-opacity="0.1"/>
  <path d="M797.625 590.312L799.649 592.658L813.422 581.995L811.219 579.33C795.643 560.477 783.855 542.22 775.206 523.524L774.979 523.111C773.688 521.113 771.717 519.747 769.42 519.249C767.124 518.752 764.787 519.188 762.831 520.482C758.882 523.103 757.73 528.526 760.244 532.611C771.719 555.605 783.943 574.492 797.617 590.326L797.625 590.312Z" fill="#F2634C" fill-opacity="0.1"/>
  <path d="M831.709 571.7L833.842 574.329L848.519 562.455L846.398 559.871C828.001 537.395 815.058 515.296 805.672 490.345L805.445 489.857C804.246 487.778 802.296 486.283 799.952 485.669C797.605 485.044 795.149 485.367 793.037 486.566C788.812 488.964 787.221 494.322 789.458 498.559C798.558 523.801 812.777 548.4 831.695 571.692L831.709 571.7Z" fill="#F2634C" fill-opacity="0.1"/>
  <path d="M865.184 554.964L867.88 557.875L878.466 544.223L876.779 542.174C860.345 522.243 855.838 513.826 846.629 485.897C845.908 483.696 844.329 481.915 842.194 480.879C839.992 479.814 837.406 479.685 835.101 480.517C832.819 481.343 831.001 483.009 829.983 485.2C828.956 487.404 828.871 489.857 829.719 492.131C840.406 520.522 845.292 533.482 865.201 554.983L865.184 554.964Z" fill="#F2634C" fill-opacity="0.1"/>
  <path d="M945.905 518.738C941.535 512.845 933.392 515.122 929.866 520.634C919.327 532.554 916.865 557.532 916.865 557.532L932.083 570.007C932.083 570.007 935.839 564.732 936.586 553.175C936.198 535.347 953.852 528.75 945.905 518.738Z" fill="#F2634C" fill-opacity="0.1"/>
  <path d="M848.691 326.643C833.892 317.839 827.351 314.15 827.072 313.998L824.154 312.357L815.371 328.005L818.278 329.649C818.278 329.649 825.002 333.444 839.53 342.082C849.779 348.179 858.205 356.948 863.877 367.445C880.355 397.901 869.487 436.316 839.651 453.082C824.779 461.435 807.583 463.429 791.238 458.68C774.909 453.949 761.446 443.105 753.35 428.185L746.124 413.891L746.271 413.816L744.684 410.875C741.1 404.258 740.422 396.658 742.767 389.49C745.101 382.325 750.143 376.595 756.95 373.362C769.297 367.5 784.553 372.053 791.683 383.723C798.997 395.678 796.14 411.074 785.042 419.549C781.52 422.236 780.494 427.033 782.617 430.952C783.868 433.266 786.06 434.91 788.627 435.463C791.194 436.017 793.87 435.419 795.956 433.822C814.104 419.949 818.996 394.627 807.33 374.924C801.667 365.354 792.343 358.258 781.084 354.974C769.823 351.678 758.174 352.627 748.256 357.636C738.928 362.355 729.905 371.861 725.121 381.843C723.624 379.726 722.054 377.557 720.421 375.286L720.381 375.225C712.161 363.847 702.834 350.963 698.769 338.949C697.678 335.721 695.074 333.34 691.973 332.75C690.012 332.369 688.026 332.65 686.243 333.558C682.089 335.661 679.413 341.152 680.411 345.586L680.447 345.72C683.758 357.411 694.767 372.971 707.507 390.99C717.227 404.723 728.236 420.283 737.471 436.473L737.546 436.62C747.963 455.883 765.276 469.849 786.297 475.947C800.506 480.064 815.495 480.237 829.635 476.447C835.75 474.809 841.715 472.435 847.33 469.379C847.715 469.169 848.088 468.961 848.473 468.751C866.967 458.353 880.389 441.117 886.283 420.204C892.143 399.385 889.801 377.612 879.687 358.901C872.464 345.549 861.754 334.396 848.724 326.634L848.691 326.643Z" fill="#F2634C" fill-opacity="0.1"/>
  <path d="M733.453 350.818L735.477 353.164L749.249 342.501L747.047 339.835C731.471 320.983 719.683 302.725 711.033 284.029L710.806 283.617C709.515 281.618 707.544 280.252 705.248 279.755C702.952 279.257 700.615 279.694 698.659 280.988C694.71 283.609 693.558 289.032 696.071 293.117C707.547 316.111 719.771 334.997 733.445 350.832L733.453 350.818Z" fill="#F2634C" fill-opacity="0.1"/>
  <path d="M767.537 332.206L769.67 334.835L784.346 322.961L782.225 320.377C763.829 297.9 750.886 275.802 741.5 250.851L741.272 250.363C740.074 248.284 738.123 246.788 735.779 246.174C733.433 245.549 730.977 245.873 728.865 247.072C724.64 249.47 723.049 254.828 725.286 259.065C734.386 284.307 748.605 308.906 767.522 332.198L767.537 332.206Z" fill="#F2634C" fill-opacity="0.1"/>
  <path d="M801.011 315.47L803.708 318.38L814.294 304.729L812.607 302.679C796.173 282.748 791.666 274.332 782.457 246.402C781.735 244.202 780.156 242.421 778.022 241.385C775.82 240.32 773.233 240.191 770.929 241.023C768.646 241.849 766.829 243.515 765.81 245.705C764.784 247.91 764.698 250.363 765.547 252.637C776.233 281.028 781.12 293.988 801.029 315.489L801.011 315.47Z" fill="#F2634C" fill-opacity="0.1"/>
  <path d="M881.733 279.243C877.363 273.351 869.22 275.628 865.693 281.139C855.155 293.06 852.693 318.038 852.693 318.038L867.911 330.513C867.911 330.513 871.666 325.238 872.414 313.681C872.025 295.853 889.679 289.255 881.733 279.243Z" fill="#F2634C" fill-opacity="0.1"/>
  <path d="M976.577 803.921C961.778 795.117 955.237 791.428 954.958 791.276L952.04 789.635L943.257 805.283L946.164 806.927C946.164 806.927 952.889 810.722 967.416 819.36C977.665 825.457 986.091 834.226 991.764 844.723C1008.24 875.179 997.373 913.594 967.537 930.36C952.665 938.713 935.469 940.707 919.124 935.957C902.795 931.227 889.333 920.382 881.236 905.463L874.01 891.169L874.157 891.094L872.571 888.153C868.986 881.536 868.308 873.936 870.653 866.768C872.987 859.603 878.029 853.872 884.836 850.64C897.183 844.778 912.439 849.33 919.569 861.001C926.884 872.956 924.027 888.352 912.929 896.827C909.406 899.514 908.38 904.311 910.503 908.23C911.754 910.544 913.946 912.188 916.514 912.741C919.081 913.295 921.756 912.697 923.842 911.1C941.99 897.227 946.882 871.905 935.216 852.202C929.554 842.632 920.229 835.536 908.971 832.252C897.709 828.956 886.06 829.905 876.142 834.914C866.814 839.633 857.792 849.139 853.007 859.121C851.511 857.004 849.94 854.835 848.307 852.564L848.267 852.503C840.047 841.125 830.721 828.241 826.655 816.227C825.564 812.999 822.96 810.617 819.859 810.028C817.898 809.647 815.912 809.928 814.13 810.836C809.975 812.939 807.299 818.43 808.297 822.864L808.333 822.998C811.644 834.689 822.653 850.249 835.393 868.268C845.114 882.001 856.122 897.561 865.358 913.751L865.433 913.898C875.849 933.161 893.162 947.126 914.183 953.225C928.393 957.342 943.381 957.514 957.522 953.725C963.636 952.087 969.601 949.713 975.217 946.657C975.601 946.447 975.974 946.239 976.359 946.029C994.854 935.631 1008.27 918.394 1014.17 897.482C1020.03 876.662 1017.69 854.89 1007.57 836.179C1000.35 822.827 989.64 811.674 976.61 803.912L976.577 803.921Z" fill="#F2634C" fill-opacity="0.1"/>
  <path d="M861.339 828.096L863.363 830.442L877.136 819.779L874.933 817.113C859.357 798.261 847.569 780.003 838.92 761.307L838.693 760.894C837.401 758.896 835.431 757.53 833.134 757.033C830.838 756.535 828.501 756.972 826.545 758.266C822.596 760.886 821.444 766.309 823.958 770.395C835.433 793.389 847.657 812.275 861.331 828.11L861.339 828.096Z" fill="#F2634C" fill-opacity="0.1"/>
  <path d="M895.423 809.484L897.556 812.113L912.233 800.239L910.112 797.655C891.715 775.178 878.772 753.08 869.386 728.129L869.159 727.641C867.96 725.562 866.01 724.066 863.666 723.452C861.319 722.827 858.863 723.151 856.751 724.35C852.526 726.748 850.935 732.106 853.172 736.343C862.272 761.585 876.491 786.184 895.409 809.476L895.423 809.484Z" fill="#F2634C" fill-opacity="0.1"/>
  <path d="M928.898 792.748L931.594 795.658L942.18 782.006L940.493 779.957C924.059 760.026 919.552 751.61 910.343 723.68C909.622 721.48 908.043 719.699 905.908 718.663C903.706 717.598 901.12 717.469 898.815 718.301C896.533 719.127 894.715 720.793 893.697 722.983C892.67 725.188 892.584 727.641 893.433 729.915C904.12 758.306 909.006 771.266 928.915 792.767L928.898 792.748Z" fill="#F2634C" fill-opacity="0.1"/>
  <path d="M1009.62 756.521C1005.25 750.629 997.106 752.906 993.58 758.417C983.041 770.338 980.579 795.316 980.579 795.316L995.797 807.791C995.797 807.791 999.553 802.516 1000.3 790.959C999.911 773.131 1017.57 766.533 1009.62 756.521Z" fill="#F2634C" fill-opacity="0.1"/>
</svg>